<?xml version="1.0"?>
<svg width="286.85715" height="285.42856" xmlns="http://www.w3.org/2000/svg" xmlns:svg="http://www.w3.org/2000/svg">

 <metadata id="metadata7">image/svg+xml</metadata>
 <g>
  <title>Layer 1</title>
  <g id="svg_2">
   <g id="g3187"/>
   <g id="g3228">
    <path fill="#dddcdc" stroke="#b5b5b6" stroke-width="4" stroke-miterlimit="4" stroke-dashoffset="0" d="m284.647267,143.134032a141.42857,140.71428 0 1 1 -282.85714,0a141.42857,140.71428 0 1 1 282.85714,0z" id="path2387"/>
    <path fill="#c8c8c8" stroke-width="0.999796" stroke-miterlimit="4" stroke-dashoffset="0" id="path3159" d="m282.697472,142.779833c0,76.62582 -62.500186,138.814875 -139.509348,138.814875c-77.009151,0 -139.509336,-62.189055 -139.509336,-138.814875c0,0 140.977305,38.890291 140.977305,38.890291"/>
   </g>
   <path fill="#000000" fill-rule="evenodd" stroke="#000000" stroke-width="5" stroke-miterlimit="4" id="path3161" d="m64.556007,91.161742l0,46.66906l0,45.25482"/>
   <path fill="#000000" stroke-width="1px" d="m214.881126,213.569892l0,-25.76953l10.95117,0c2.75389,0.00002 4.75487,0.23147 6.00293,0.69433c1.24803,0.46292 2.24705,1.28616 2.99707,2.46973c0.74998,1.18361 1.12498,2.53713 1.125,4.06055c-0.00002,1.93361 -0.56838,3.53028 -1.70508,4.79003c-1.13674,1.25978 -2.83595,2.05373 -5.09765,2.38184c1.12498,0.65626 2.05369,1.37696 2.78613,2.16211c0.7324,0.78516 1.71971,2.17969 2.96191,4.18359l3.14649,5.02735l-6.22266,0l-3.76172,-5.60742c-1.33595,-2.0039 -2.25001,-3.2666 -2.74218,-3.78809c-0.4922,-0.52147 -1.01369,-0.8789 -1.56446,-1.07227c-0.55079,-0.19334 -1.42383,-0.29002 -2.61914,-0.29003l-1.05468,0l0,10.75781l-5.20313,0zm5.20313,-14.8711l3.8496,0c2.49608,0.00002 4.05468,-0.10545 4.67579,-0.3164c0.62107,-0.21092 1.1074,-0.57421 1.45898,-1.08985c0.35154,-0.5156 0.52733,-1.16013 0.52734,-1.93359c-0.00001,-0.86717 -0.23146,-1.56736 -0.69433,-2.10059c-0.46291,-0.53318 -1.11623,-0.87009 -1.95996,-1.01074c-0.42189,-0.05857 -1.68752,-0.08787 -3.79688,-0.08789l-4.06054,0l0,6.53906z" id="text3169"/>
   <path fill="#000000" stroke-width="1px" d="m70.00502,88.891542l-4.93945,0l0,-18.61524c-1.80469,1.68752 -3.93164,2.93557 -6.38086,3.74414l0,-4.48242c1.28906,-0.42185 2.68945,-1.22166 4.20117,-2.39941c1.51171,-1.17771 2.54882,-2.55174 3.11133,-4.12207l4.00781,0l0,25.875z" id="text3173"/>
   <path fill="#000000" fill-rule="evenodd" stroke="#000000" stroke-width="5" stroke-miterlimit="4" d="m145.003697,154.437642l0,14.54449l0,14.10375" id="path3177"/>
   <path fill="#000000" stroke-width="1px" d="m73.853992,208.710314l0,4.58789l-17.31446,0c0.1875,-1.73438 0.75,-3.37793 1.6875,-4.93067c0.9375,-1.55273 2.78906,-3.61229 5.55469,-6.17871c2.22655,-2.0742 3.59179,-3.48045 4.0957,-4.21875c0.67968,-1.01951 1.01952,-2.02733 1.01954,-3.02344c-0.00002,-1.10154 -0.29592,-1.94822 -0.8877,-2.54004c-0.59181,-0.59177 -1.40919,-0.88767 -2.45215,-0.88769c-1.03126,0.00002 -1.85157,0.31057 -2.46094,0.93164c-0.60938,0.62111 -0.96094,1.65236 -1.05468,3.09375l-4.92188,-0.49219c0.29297,-2.71873 1.21289,-4.6699 2.75977,-5.85351c1.54687,-1.18357 3.48046,-1.77537 5.80078,-1.77539c2.54296,0.00002 4.541,0.68557 5.99414,2.05664c1.45311,1.37111 2.17967,3.07619 2.17969,5.11523c-0.00002,1.16018 -0.20803,2.26467 -0.62403,3.31348c-0.41603,1.04884 -1.07521,2.14747 -1.97754,3.2959c-0.59767,0.76173 -1.67579,1.85743 -3.23437,3.28711c-1.5586,1.42969 -2.54591,2.37891 -2.96191,2.84765c-0.41603,0.46876 -0.75294,0.92579 -1.01075,1.3711l9.8086,0z" id="text3179"/>
   <path fill="#000000" stroke-width="1px" d="m134.675637,81.859082l4.78125,-0.58007c0.15234,1.21875 0.56249,2.15039 1.23047,2.79492c0.66796,0.64453 1.47655,0.9668 2.42578,0.9668c1.01952,0 1.87792,-0.38672 2.5752,-1.16016c0.69725,-0.77343 1.04588,-1.8164 1.04589,-3.12891c-0.00001,-1.24218 -0.33399,-2.22655 -1.00195,-2.95312c-0.66798,-0.72655 -1.48243,-1.08983 -2.44336,-1.08985c-0.63282,0.00002 -1.38868,0.12306 -2.26758,0.36914l0.54492,-4.02539c1.33593,0.03518 2.35546,-0.25486 3.0586,-0.87011c0.70311,-0.61522 1.05467,-1.4326 1.05469,-2.45215c-0.00002,-0.86717 -0.25783,-1.55858 -0.77344,-2.07422c-0.51564,-0.5156 -1.20118,-0.77342 -2.05664,-0.77344c-0.84376,0.00002 -1.56446,0.29299 -2.16211,0.87891c-0.59766,0.58596 -0.96095,1.44142 -1.08985,2.5664l-4.55273,-0.77343c0.3164,-1.55858 0.79394,-2.80369 1.43262,-3.73535c0.63867,-0.93162 1.52929,-1.66404 2.67187,-2.19727c1.14257,-0.53318 2.42285,-0.79978 3.84082,-0.7998c2.42577,0.00002 4.37108,0.77346 5.83594,2.32031c1.20701,1.26564 1.81053,2.69533 1.81055,4.28906c-0.00002,2.26174 -1.23635,4.06642 -3.70899,5.41406c1.47655,0.31642 2.65721,1.02541 3.542,2.12696c0.88474,1.10157 1.32712,2.43165 1.32714,3.99023c-0.00002,2.26172 -0.82619,4.18946 -2.47851,5.7832c-1.65236,1.59375 -3.709,2.39063 -6.16992,2.39063c-2.33204,0 -4.26563,-0.6709 -5.80079,-2.0127c-1.53515,-1.34179 -2.42578,-3.09667 -2.67187,-5.26465l0,0z" id="text3183"/>
   <path fill="#000000" fill-rule="evenodd" stroke="#000000" stroke-width="5" stroke-miterlimit="4" d="m226.327487,91.161652l0,46.66906l0,45.25482" id="path3194"/>
   <path fill="#000000" stroke-width="1px" d="m144.230717,213.199443l0,-5.18555l-10.54687,0l0,-4.32421l11.17969,-16.36524l4.14843,0l0,16.34766l3.19922,0l0,4.34179l-3.19922,0l0,5.18555l-4.78125,0zm0,-9.52734l0,-8.80664l-5.92382,8.80664l5.92382,0z" id="text3196"/>
   <path fill="#000000" stroke-width="1px" d="m216.245187,82.070022l4.92187,-0.50976c0.14062,1.11328 0.55664,1.99512 1.24805,2.6455c0.6914,0.6504 1.48827,0.97559 2.39063,0.97559c1.03123,0 1.90428,-0.41894 2.61914,-1.25684c0.71483,-0.83788 1.07225,-2.10057 1.07226,-3.78808c-0.00001,-1.58202 -0.3545,-2.76855 -1.06347,-3.55957c-0.709,-0.791 -1.63185,-1.18651 -2.76856,-1.18653c-1.41798,0.00002 -2.68946,0.62697 -3.81445,1.88086l-4.00781,-0.58007l2.53125,-13.41211l13.06054,0l0,4.62304l-9.3164,0l-0.77344,4.37696c1.10155,-0.55077 2.22655,-0.82616 3.375,-0.82618c2.19139,0.00002 4.04881,0.7969 5.57226,2.39063c1.52342,1.59376 2.28514,3.66212 2.28516,6.20508c-0.00002,2.1211 -0.61525,4.01367 -1.8457,5.67773c-1.6758,2.27344 -4.00197,3.41016 -6.97852,3.41016c-2.37891,0 -4.31836,-0.63867 -5.81836,-1.91602c-1.5,-1.27734 -2.39648,-2.99413 -2.68945,-5.15039l0,0z" id="text3200"/>
   <path fill="none" fill-rule="evenodd" stroke="#000000" stroke-width="5" stroke-miterlimit="4" d="m160.844007,134.623882l64.83528,0" id="path3204"/>
   <path fill="#000000" fill-rule="evenodd" stroke="#000000" stroke-width="5" stroke-miterlimit="4" d="m144.555697,91.540472l0,13.52176l0,13.112" id="path3262"/>
   <path fill="none" fill-rule="evenodd" stroke="#000000" stroke-width="5" stroke-miterlimit="4" d="m62.441787,134.623882l64.83528,0" id="path3264"/>
   <text font-size="36px" font-style="normal" font-weight="bold" text-anchor="start" fill="#000000" stroke-width="1px" font-family="Arial" xml:space="preserve" x="131.758417" y="148.845612" id="text3266">
    <tspan id="tspan3268" x="129.758417" y="149.345612">N</tspan>
   </text>
  </g>
 </g>
</svg>