<?xml version="1.0" standalone="yes"?>

<svg version="1.1" viewBox="0.0 0.0 384.0 264.0" fill="none" stroke="none" stroke-linecap="square" stroke-miterlimit="10" xmlns="http://www.w3.org/2000/svg" xmlns:xlink="http://www.w3.org/1999/xlink"><clipPath id="p.0"><path d="m0 0l384.0 0l0 264.0l-384.0 0l0 -264.0z" clip-rule="nonzero"></path></clipPath><g clip-path="url(#p.0)"><path fill="#000000" fill-opacity="0.0" d="m0 0l384.0 0l0 264.0l-384.0 0z" fill-rule="nonzero"></path><path fill="#cfe2f3" fill-opacity="0.502" d="m85.55905 13.316856l0 0c0 -2.934969 2.3792648 -5.314232 5.3142395 -5.314232l193.74948 0c1.4094238 0 2.7611084 0.55989075 3.757721 1.5565023c0.99661255 0.99661255 1.5565186 2.3483076 1.5565186 3.7577295l0 71.29279c0 2.9349747 -2.3792725 5.314232 -5.3142395 5.314232l-193.74948 0c-2.9349747 0 -5.3142395 -2.3792572 -5.3142395 -5.314232z" fill-rule="nonzero"></path><path stroke="#0b5394" stroke-width="1.0" stroke-linejoin="round" stroke-linecap="butt" d="m85.55905 13.316856l0 0c0 -2.934969 2.3792648 -5.314232 5.3142395 -5.314232l193.74948 0c1.4094238 0 2.7611084 0.55989075 3.757721 1.5565023c0.99661255 0.99661255 1.5565186 2.3483076 1.5565186 3.7577295l0 71.29279c0 2.9349747 -2.3792725 5.314232 -5.3142395 5.314232l-193.74948 0c-2.9349747 0 -5.3142395 -2.3792572 -5.3142395 -5.314232z" fill-rule="nonzero"></path><path fill="#000000" d="m237.04459 24.39536l0.71875 -0.0625q0.046875 0.4375 0.234375 0.71875q0.1875 0.265625 0.578125 0.4375q0.390625 0.171875 0.875 0.171875q0.4375 0 0.765625 -0.125q0.328125 -0.140625 0.484375 -0.359375q0.171875 -0.234375 0.171875 -0.5q0 -0.265625 -0.15625 -0.46875q-0.15625 -0.203125 -0.515625 -0.328125q-0.234375 -0.09375 -1.03125 -0.28125q-0.78125 -0.1875 -1.09375 -0.359375q-0.40625 -0.21875 -0.609375 -0.53125q-0.203125 -0.328125 -0.203125 -0.71875q0 -0.4375 0.25 -0.8125q0.25 -0.375 0.71875 -0.5625q0.46875 -0.203125 1.046875 -0.203125q0.640625 0 1.125 0.203125q0.484375 0.203125 0.75 0.609375q0.265625 0.390625 0.28125 0.90625l-0.734375 0.046875q-0.046875 -0.546875 -0.390625 -0.8125q-0.34375 -0.28125 -1.0 -0.28125q-0.6875 0 -1.0 0.25q-0.3125 0.25 -0.3125 0.609375q0 0.3125 0.21875 0.5q0.21875 0.203125 1.140625 0.421875q0.921875 0.203125 1.265625 0.359375q0.5 0.234375 0.734375 0.59375q0.25 0.34375 0.25 0.796875q0 0.46875 -0.265625 0.875q-0.265625 0.390625 -0.75 0.625q-0.484375 0.21875 -1.109375 0.21875q-0.765625 0 -1.296875 -0.21875q-0.53125 -0.234375 -0.828125 -0.6875q-0.296875 -0.453125 -0.3125 -1.03125zm5.5078125 3.4375l0 -5.75l0.640625 0l0 0.546875q0.21875 -0.3125 0.5 -0.46875q0.296875 -0.171875 0.703125 -0.171875q0.53125 0 0.9375 0.28125q0.40625 0.265625 0.609375 0.765625q0.203125 0.5 0.203125 1.09375q0 0.640625 -0.234375 1.15625q-0.21875 0.5 -0.65625 0.78125q-0.4375 0.265625 -0.90625 0.265625q-0.359375 0 -0.640625 -0.140625q-0.28125 -0.15625 -0.453125 -0.390625l0 2.03125l-0.703125 0zm0.640625 -3.640625q0 0.796875 0.3125 1.1875q0.328125 0.375 0.796875 0.375q0.46875 0 0.796875 -0.390625q0.328125 -0.40625 0.328125 -1.234375q0 -0.796875 -0.328125 -1.1875q-0.3125 -0.390625 -0.765625 -0.390625q-0.453125 0 -0.796875 0.421875q-0.34375 0.40625 -0.34375 1.21875zm6.6523438 0.703125l0.71875 0.09375q-0.171875 0.640625 -0.640625 1.0q-0.453125 0.34375 -1.1875 0.34375q-0.90625 0 -1.4375 -0.5625q-0.53125 -0.5625 -0.53125 -1.578125q0 -1.046875 0.53125 -1.625q0.546875 -0.578125 1.40625 -0.578125q0.828125 0 1.359375 0.578125q0.53125 0.5625 0.53125 1.59375q0 0.0625 -0.015625 0.1875l-3.09375 0q0.046875 0.671875 0.390625 1.046875q0.34375 0.359375 0.875 0.359375q0.375 0 0.640625 -0.203125q0.28125 -0.203125 0.453125 -0.65625zm-2.3125 -1.125l2.3125 0q-0.046875 -0.53125 -0.265625 -0.796875q-0.328125 -0.40625 -0.875 -0.40625q-0.484375 0 -0.8125 0.328125q-0.328125 0.328125 -0.359375 0.875zm6.7617188 1.125l0.71875 0.09375q-0.171875 0.640625 -0.640625 1.0q-0.453125 0.34375 -1.1875 0.34375q-0.90625 0 -1.4375 -0.5625q-0.53125 -0.5625 -0.53125 -1.578125q0 -1.046875 0.53125 -1.625q0.546875 -0.578125 1.40625 -0.578125q0.828125 0 1.359375 0.578125q0.53125 0.5625 0.53125 1.59375q0 0.0625 -0.015625 0.1875l-3.09375 0q0.046875 0.671875 0.390625 1.046875q0.34375 0.359375 0.875 0.359375q0.375 0 0.640625 -0.203125q0.28125 -0.203125 0.453125 -0.65625zm-2.3125 -1.125l2.3125 0q-0.046875 -0.53125 -0.265625 -0.796875q-0.328125 -0.40625 -0.875 -0.40625q-0.484375 0 -0.8125 0.328125q-0.328125 0.328125 -0.359375 0.875zm6.6054688 2.46875l0 -0.53125q-0.390625 0.625 -1.15625 0.625q-0.5 0 -0.921875 -0.265625q-0.40625 -0.28125 -0.640625 -0.765625q-0.21875 -0.5 -0.21875 -1.140625q0 -0.609375 0.203125 -1.109375q0.203125 -0.515625 0.609375 -0.78125q0.421875 -0.28125 0.9375 -0.28125q0.375 0 0.65625 0.171875q0.296875 0.15625 0.484375 0.40625l0 -2.0625l0.703125 0l0 5.734375l-0.65625 0zm-2.21875 -2.078125q0 0.796875 0.328125 1.203125q0.34375 0.390625 0.796875 0.390625q0.46875 0 0.78125 -0.375q0.328125 -0.375 0.328125 -1.15625q0 -0.84375 -0.328125 -1.234375q-0.328125 -0.40625 -0.8125 -0.40625q-0.46875 0 -0.78125 0.390625q-0.3125 0.375 -0.3125 1.1875zm6.1875 2.078125l0 -5.734375l0.703125 0l0 5.734375l-0.703125 0zm4.4960938 -0.515625q-0.390625 0.328125 -0.75 0.46875q-0.359375 0.140625 -0.78125 0.140625q-0.671875 0 -1.046875 -0.328125q-0.359375 -0.34375 -0.359375 -0.859375q0 -0.3125 0.125 -0.5625q0.140625 -0.25 0.359375 -0.390625q0.234375 -0.15625 0.515625 -0.234375q0.203125 -0.0625 0.625 -0.109375q0.859375 -0.109375 1.25 -0.25q0.015625 -0.140625 0.015625 -0.171875q0 -0.4375 -0.203125 -0.609375q-0.265625 -0.234375 -0.796875 -0.234375q-0.5 0 -0.734375 0.171875q-0.234375 0.171875 -0.359375 0.609375l-0.6875 -0.09375q0.09375 -0.4375 0.3125 -0.703125q0.21875 -0.28125 0.625 -0.421875q0.40625 -0.15625 0.9375 -0.15625q0.53125 0 0.859375 0.125q0.34375 0.125 0.5 0.328125q0.15625 0.1875 0.21875 0.46875q0.03125 0.1875 0.03125 0.65625l0 0.9375q0 0.96875 0.046875 1.234375q0.046875 0.265625 0.171875 0.5l-0.734375 0q-0.109375 -0.21875 -0.140625 -0.515625zm-0.0625 -1.5625q-0.375 0.15625 -1.140625 0.265625q-0.4375 0.0625 -0.625 0.140625q-0.171875 0.078125 -0.265625 0.234375q-0.09375 0.140625 -0.09375 0.328125q0 0.28125 0.203125 0.46875q0.21875 0.1875 0.625 0.1875q0.40625 0 0.71875 -0.171875q0.328125 -0.1875 0.46875 -0.5q0.109375 -0.234375 0.109375 -0.703125l0 -0.25zm1.7773438 3.671875l-0.078125 -0.65625q0.234375 0.0625 0.40625 0.0625q0.234375 0 0.375 -0.078125q0.140625 -0.078125 0.21875 -0.21875q0.078125 -0.109375 0.21875 -0.515625q0.015625 -0.0625 0.0625 -0.171875l-1.578125 -4.171875l0.765625 0l0.859375 2.40625q0.171875 0.453125 0.296875 0.96875q0.125 -0.484375 0.296875 -0.953125l0.890625 -2.421875l0.703125 0l-1.578125 4.234375q-0.265625 0.671875 -0.40625 0.9375q-0.1875 0.34375 -0.4375 0.5q-0.234375 0.171875 -0.5625 0.171875q-0.203125 0 -0.453125 -0.09375zm6.875 -2.9375l0.71875 0.09375q-0.171875 0.640625 -0.640625 1.0q-0.453125 0.34375 -1.1875 0.34375q-0.90625 0 -1.4375 -0.5625q-0.53125 -0.5625 -0.53125 -1.578125q0 -1.046875 0.53125 -1.625q0.546875 -0.578125 1.40625 -0.578125q0.828125 0 1.359375 0.578125q0.53125 0.5625 0.53125 1.59375q0 0.0625 -0.015625 0.1875l-3.09375 0q0.046875 0.671875 0.390625 1.046875q0.34375 0.359375 0.875 0.359375q0.375 0 0.640625 -0.203125q0.28125 -0.203125 0.453125 -0.65625zm-2.3125 -1.125l2.3125 0q-0.046875 -0.53125 -0.265625 -0.796875q-0.328125 -0.40625 -0.875 -0.40625q-0.484375 0 -0.8125 0.328125q-0.328125 0.328125 -0.359375 0.875zm3.9023438 2.46875l0 -4.15625l0.640625 0l0 0.640625q0.234375 -0.453125 0.4375 -0.59375q0.21875 -0.140625 0.453125 -0.140625q0.359375 0 0.734375 0.234375l-0.25 0.65625q-0.25 -0.15625 -0.515625 -0.15625q-0.234375 0 -0.421875 0.140625q-0.171875 0.140625 -0.25 0.375q-0.125 0.375 -0.125 0.828125l0 2.171875l-0.703125 0z" fill-rule="nonzero"></path><path fill="#fff2cc" fill-opacity="0.502" d="m85.55905 111.206856l0 0c0 -5.5472183 4.49691 -10.044128 10.044128 -10.044128l184.2897 0c2.6638794 0 5.218628 1.0582199 7.1022644 2.9418564c1.8836365 1.8836365 2.941864 4.4384003 2.941864 7.102272l0 134.7464c0 5.547226 -4.4969177 10.044128 -10.044128 10.044128l-184.2897 0c-5.5472183 0 -10.044128 -4.4969025 -10.044128 -10.044128z" fill-rule="nonzero"></path><path stroke="#bf9000" stroke-width="1.0" stroke-linejoin="round" stroke-linecap="butt" d="m85.55905 111.206856l0 0c0 -5.5472183 4.49691 -10.044128 10.044128 -10.044128l184.2897 0c2.6638794 0 5.218628 1.0582199 7.1022644 2.9418564c1.8836365 1.8836365 2.941864 4.4384003 2.941864 7.102272l0 134.7464c0 5.547226 -4.4969177 10.044128 -10.044128 10.044128l-184.2897 0c-5.5472183 0 -10.044128 -4.4969025 -10.044128 -10.044128z" fill-rule="nonzero"></path><path fill="#000000" d="m238.56941 241.73555l0 -5.734375l2.140625 0q0.65625 0 1.046875 0.1875q0.40625 0.171875 0.625 0.53125q0.234375 0.359375 0.234375 0.75q0 0.375 -0.203125 0.703125q-0.203125 0.3125 -0.609375 0.515625q0.53125 0.15625 0.796875 0.53125q0.28125 0.359375 0.28125 0.859375q0 0.390625 -0.171875 0.75q-0.15625 0.34375 -0.40625 0.53125q-0.25 0.1875 -0.640625 0.28125q-0.375 0.09375 -0.921875 0.09375l-2.171875 0zm0.75 -3.328125l1.234375 0q0.515625 0 0.734375 -0.0625q0.28125 -0.078125 0.421875 -0.28125q0.15625 -0.203125 0.15625 -0.5q0 -0.28125 -0.140625 -0.5q-0.140625 -0.21875 -0.390625 -0.296875q-0.25 -0.078125 -0.875 -0.078125l-1.140625 0l0 1.71875zm0 2.65625l1.421875 0q0.375 0 0.515625 -0.03125q0.265625 -0.046875 0.4375 -0.15625q0.1875 -0.109375 0.296875 -0.3125q0.109375 -0.21875 0.109375 -0.484375q0 -0.328125 -0.171875 -0.5625q-0.15625 -0.234375 -0.453125 -0.328125q-0.28125 -0.09375 -0.828125 -0.09375l-1.328125 0l0 1.96875zm7.2265625 0.15625q-0.390625 0.328125 -0.75 0.46875q-0.359375 0.140625 -0.78125 0.140625q-0.671875 0 -1.046875 -0.328125q-0.359375 -0.34375 -0.359375 -0.859375q0 -0.3125 0.125 -0.5625q0.140625 -0.25 0.359375 -0.390625q0.234375 -0.15625 0.515625 -0.234375q0.203125 -0.0625 0.625 -0.109375q0.859375 -0.109375 1.25 -0.25q0.015625 -0.140625 0.015625 -0.171875q0 -0.4375 -0.203125 -0.609375q-0.265625 -0.234375 -0.796875 -0.234375q-0.5 0 -0.734375 0.171875q-0.234375 0.171875 -0.359375 0.609375l-0.6875 -0.09375q0.09375 -0.4375 0.3125 -0.703125q0.21875 -0.28125 0.625 -0.421875q0.40625 -0.15625 0.9375 -0.15625q0.53125 0 0.859375 0.125q0.34375 0.125 0.5 0.328125q0.15625 0.1875 0.21875 0.46875q0.03125 0.1875 0.03125 0.65625l0 0.9375q0 0.96875 0.046875 1.234375q0.046875 0.265625 0.171875 0.5l-0.734375 0q-0.109375 -0.21875 -0.140625 -0.515625zm-0.0625 -1.5625q-0.375 0.15625 -1.140625 0.265625q-0.4375 0.0625 -0.625 0.140625q-0.171875 0.078125 -0.265625 0.234375q-0.09375 0.140625 -0.09375 0.328125q0 0.28125 0.203125 0.46875q0.21875 0.1875 0.625 0.1875q0.40625 0 0.71875 -0.171875q0.328125 -0.1875 0.46875 -0.5q0.109375 -0.234375 0.109375 -0.703125l0 -0.25zm3.3398438 1.453125l0.109375 0.609375q-0.296875 0.078125 -0.53125 0.078125q-0.390625 0 -0.609375 -0.125q-0.203125 -0.125 -0.296875 -0.3125q-0.078125 -0.203125 -0.078125 -0.84375l0 -2.390625l-0.515625 0l0 -0.546875l0.515625 0l0 -1.015625l0.703125 -0.421875l0 1.4375l0.703125 0l0 0.546875l-0.703125 0l0 2.4375q0 0.296875 0.03125 0.390625q0.046875 0.078125 0.125 0.125q0.078125 0.046875 0.234375 0.046875q0.125 0 0.3125 -0.015625zm3.3945312 -0.890625l0.6875 0.078125q-0.109375 0.71875 -0.578125 1.125q-0.46875 0.40625 -1.140625 0.40625q-0.859375 0 -1.375 -0.546875q-0.515625 -0.5625 -0.515625 -1.609375q0 -0.671875 0.21875 -1.171875q0.234375 -0.5 0.6875 -0.75q0.453125 -0.265625 0.984375 -0.265625q0.671875 0 1.09375 0.34375q0.4375 0.34375 0.5625 0.96875l-0.6875 0.109375q-0.09375 -0.421875 -0.34375 -0.625q-0.25 -0.21875 -0.59375 -0.21875q-0.53125 0 -0.875 0.390625q-0.328125 0.375 -0.328125 1.203125q0 0.828125 0.3125 1.21875q0.328125 0.375 0.84375 0.375q0.421875 0 0.6875 -0.25q0.28125 -0.265625 0.359375 -0.78125zm1.296875 1.515625l0 -5.734375l0.703125 0l0 2.0625q0.484375 -0.578125 1.2343597 -0.578125q0.46875 0 0.796875 0.1875q0.34375 0.1875 0.484375 0.515625q0.15625 0.3125 0.15625 0.921875l0 2.625l-0.703125 0l0 -2.625q0 -0.53125 -0.234375 -0.765625q-0.21875 -0.25 -0.640625 -0.25q-0.31248474 0 -0.59373474 0.171875q-0.265625 0.15625 -0.390625 0.4375q-0.109375 0.265625 -0.109375 0.765625l0 2.265625l-0.703125 0zm6.6562347 0l0 -5.734375l0.703125 0l0 5.734375l-0.703125 0zm4.4960938 -0.515625q-0.390625 0.328125 -0.75 0.46875q-0.359375 0.140625 -0.78125 0.140625q-0.671875 0 -1.046875 -0.328125q-0.359375 -0.34375 -0.359375 -0.859375q0 -0.3125 0.125 -0.5625q0.140625 -0.25 0.359375 -0.390625q0.234375 -0.15625 0.515625 -0.234375q0.203125 -0.0625 0.625 -0.109375q0.859375 -0.109375 1.25 -0.25q0.015625 -0.140625 0.015625 -0.171875q0 -0.4375 -0.203125 -0.609375q-0.265625 -0.234375 -0.796875 -0.234375q-0.5 0 -0.734375 0.171875q-0.234375 0.171875 -0.359375 0.609375l-0.6875 -0.09375q0.09375 -0.4375 0.3125 -0.703125q0.21875 -0.28125 0.625 -0.421875q0.40625 -0.15625 0.9375 -0.15625q0.53125 0 0.859375 0.125q0.34375 0.125 0.5 0.328125q0.15625 0.1875 0.21875 0.46875q0.03125 0.1875 0.03125 0.65625l0 0.9375q0 0.96875 0.046875 1.234375q0.046875 0.265625 0.171875 0.5l-0.734375 0q-0.109375 -0.21875 -0.140625 -0.515625zm-0.0625 -1.5625q-0.375 0.15625 -1.140625 0.265625q-0.4375 0.0625 -0.625 0.140625q-0.171875 0.078125 -0.265625 0.234375q-0.09375 0.140625 -0.09375 0.328125q0 0.28125 0.203125 0.46875q0.21875 0.1875 0.625 0.1875q0.40625 0 0.71875 -0.171875q0.328125 -0.1875 0.46875 -0.5q0.109375 -0.234375 0.109375 -0.703125l0 -0.25zm1.7773438 3.671875l-0.078125 -0.65625q0.234375 0.0625 0.40625 0.0625q0.234375 0 0.375 -0.078125q0.140625 -0.078125 0.21875 -0.21875q0.078125 -0.109375 0.21875 -0.515625q0.015625 -0.0625 0.0625 -0.171875l-1.578125 -4.171875l0.765625 0l0.859375 2.40625q0.171875 0.453125 0.296875 0.96875q0.125 -0.484375 0.296875 -0.953125l0.890625 -2.421875l0.703125 0l-1.578125 4.234375q-0.265625 0.671875 -0.40625 0.9375q-0.1875 0.34375 -0.4375 0.5q-0.234375 0.171875 -0.5625 0.171875q-0.203125 0 -0.453125 -0.09375zm6.875 -2.9375l0.71875 0.09375q-0.171875 0.640625 -0.640625 1.0q-0.453125 0.34375 -1.1875 0.34375q-0.90625 0 -1.4375 -0.5625q-0.53125 -0.5625 -0.53125 -1.578125q0 -1.046875 0.53125 -1.625q0.546875 -0.578125 1.40625 -0.578125q0.828125 0 1.359375 0.578125q0.53125 0.5625 0.53125 1.59375q0 0.0625 -0.015625 0.1875l-3.09375 0q0.046875 0.671875 0.390625 1.046875q0.34375 0.359375 0.875 0.359375q0.375 0 0.640625 -0.203125q0.28125 -0.203125 0.453125 -0.65625zm-2.3125 -1.125l2.3125 0q-0.046875 -0.53125 -0.265625 -0.796875q-0.328125 -0.40625 -0.875 -0.40625q-0.484375 0 -0.8125 0.328125q-0.328125 0.328125 -0.359375 0.875zm3.9023438 2.46875l0 -4.15625l0.640625 0l0 0.640625q0.234375 -0.453125 0.4375 -0.59375q0.21875 -0.140625 0.453125 -0.140625q0.359375 0 0.734375 0.234375l-0.25 0.65625q-0.25 -0.15625 -0.515625 -0.15625q-0.234375 0 -0.421875 0.140625q-0.171875 0.140625 -0.25 0.375q-0.125 0.375 -0.125 0.828125l0 2.171875l-0.703125 0z" fill-rule="nonzero"></path><path fill="#f4cccc" d="m210.96738 61.810814l0 0c0 -1.710247 14.411636 -3.0966759 32.189285 -3.0966759c17.777664 0 32.189285 1.3864288 32.189285 3.0966759l0 12.3867035c0 1.7102432 -14.411621 3.096672 -32.189285 3.096672c-17.777649 0 -32.189285 -1.3864288 -32.189285 -3.096672z" fill-rule="nonzero"></path><path fill="#000000" fill-opacity="0.0" d="m275.34595 61.810814l0 0c0 1.710247 -14.411621 3.0966797 -32.189285 3.0966797c-17.777649 0 -32.189285 -1.3864326 -32.189285 -3.0966797" fill-rule="nonzero"></path><path fill="#000000" fill-opacity="0.0" d="m210.96738 61.810814l0 0c0 -1.710247 14.411636 -3.0966759 32.189285 -3.0966759c17.777664 0 32.189285 1.3864288 32.189285 3.0966759l0 12.3867035c0 1.7102432 -14.411621 3.096672 -32.189285 3.096672c-17.777649 0 -32.189285 -1.3864288 -32.189285 -3.096672z" fill-rule="nonzero"></path><path stroke="#990000" stroke-width="1.0" stroke-linejoin="round" stroke-linecap="butt" d="m275.34595 61.810814l0 0c0 1.710247 -14.411621 3.0966797 -32.189285 3.0966797c-17.777649 0 -32.189285 -1.3864326 -32.189285 -3.0966797" fill-rule="nonzero"></path><path stroke="#990000" stroke-width="1.0" stroke-linejoin="round" stroke-linecap="butt" d="m210.96738 61.810814l0 0c0 -1.710247 14.411636 -3.0966759 32.189285 -3.0966759c17.777664 0 32.189285 1.3864288 32.189285 3.0966759l0 12.3867035c0 1.7102432 -14.411621 3.096672 -32.189285 3.096672c-17.777649 0 -32.189285 -1.3864288 -32.189285 -3.096672z" fill-rule="nonzero"></path><path fill="#f4cccc" d="m210.96738 47.746887l0 0c0 -1.7102432 14.411636 -3.096672 32.189285 -3.096672c17.777664 0 32.189285 1.3864288 32.189285 3.096672l0 12.3867035c0 1.710247 -14.411621 3.0966759 -32.189285 3.0966759c-17.777649 0 -32.189285 -1.3864288 -32.189285 -3.0966759z" fill-rule="nonzero"></path><path fill="#000000" fill-opacity="0.0" d="m275.34595 47.746887l0 0c0 1.710247 -14.411621 3.0966759 -32.189285 3.0966759c-17.777649 0 -32.189285 -1.3864288 -32.189285 -3.0966759" fill-rule="nonzero"></path><path fill="#000000" fill-opacity="0.0" d="m210.96738 47.746887l0 0c0 -1.7102432 14.411636 -3.096672 32.189285 -3.096672c17.777664 0 32.189285 1.3864288 32.189285 3.096672l0 12.3867035c0 1.710247 -14.411621 3.0966759 -32.189285 3.0966759c-17.777649 0 -32.189285 -1.3864288 -32.189285 -3.0966759z" fill-rule="nonzero"></path><path stroke="#990000" stroke-width="1.0" stroke-linejoin="round" stroke-linecap="butt" d="m275.34595 47.746887l0 0c0 1.710247 -14.411621 3.0966759 -32.189285 3.0966759c-17.777649 0 -32.189285 -1.3864288 -32.189285 -3.0966759" fill-rule="nonzero"></path><path stroke="#990000" stroke-width="1.0" stroke-linejoin="round" stroke-linecap="butt" d="m210.96738 47.746887l0 0c0 -1.7102432 14.411636 -3.096672 32.189285 -3.096672c17.777664 0 32.189285 1.3864288 32.189285 3.096672l0 12.3867035c0 1.710247 -14.411621 3.0966759 -32.189285 3.0966759c-17.777649 0 -32.189285 -1.3864288 -32.189285 -3.0966759z" fill-rule="nonzero"></path><path fill="#000000" d="m225.28166 56.324825l0.71875 -0.0625q0.046875 0.4375 0.234375 0.71875q0.1875 0.265625 0.578125 0.4375q0.390625 0.171875 0.875 0.171875q0.4375 0 0.765625 -0.125q0.328125 -0.140625 0.484375 -0.359375q0.171875 -0.234375 0.171875 -0.5q0 -0.265625 -0.15625 -0.46875q-0.15625 -0.203125 -0.515625 -0.328125q-0.234375 -0.09375 -1.03125 -0.28125q-0.78125 -0.1875 -1.09375 -0.359375q-0.40625 -0.21875 -0.609375 -0.53125q-0.203125 -0.328125 -0.203125 -0.71875q0 -0.4375 0.25 -0.8125q0.25 -0.375 0.71875 -0.5625q0.46875 -0.203125 1.046875 -0.203125q0.640625 0 1.125 0.203125q0.484375 0.203125 0.75 0.609375q0.265625 0.390625 0.28125 0.90625l-0.734375 0.046875q-0.046875 -0.546875 -0.390625 -0.8125q-0.34375 -0.28125 -1.0 -0.28125q-0.6875 0 -1.0 0.25q-0.3125 0.25 -0.3125 0.609375q0 0.3125 0.21875 0.5q0.21875 0.203125 1.140625 0.421875q0.921875 0.203125 1.265625 0.359375q0.5 0.234375 0.734375 0.59375q0.25 0.34375 0.25 0.796875q0 0.46875 -0.265625 0.875q-0.265625 0.390625 -0.75 0.625q-0.484375 0.21875 -1.109375 0.21875q-0.765625 0 -1.296875 -0.21875q-0.53125 -0.234375 -0.828125 -0.6875q-0.296875 -0.453125 -0.3125 -1.03125zm5.5078125 3.4375l0 -5.75l0.640625 0l0 0.546875q0.21875 -0.3125 0.5 -0.46875q0.296875 -0.171875 0.703125 -0.171875q0.53125 0 0.9375 0.28125q0.40625 0.265625 0.609375 0.765625q0.203125 0.5 0.203125 1.09375q0 0.640625 -0.234375 1.15625q-0.21875 0.5 -0.65625 0.78125q-0.4375 0.265625 -0.90625 0.265625q-0.359375 0 -0.640625 -0.140625q-0.28125 -0.15625 -0.453125 -0.390625l0 2.03125l-0.703125 0zm0.640625 -3.640625q0 0.796875 0.3125 1.1875q0.328125 0.375 0.796875 0.375q0.46875 0 0.796875 -0.390625q0.328125 -0.40625 0.328125 -1.234375q0 -0.796875 -0.328125 -1.1875q-0.3125 -0.390625 -0.765625 -0.390625q-0.453125 0 -0.796875 0.421875q-0.34375 0.40625 -0.34375 1.21875zm6.6523438 0.703125l0.71875 0.09375q-0.171875 0.640625 -0.640625 1.0q-0.453125 0.34375 -1.1875 0.34375q-0.90625 0 -1.4375 -0.5625q-0.53125 -0.5625 -0.53125 -1.578125q0 -1.046875 0.53125 -1.625q0.546875 -0.578125 1.40625 -0.578125q0.828125 0 1.359375 0.578125q0.53125 0.5625 0.53125 1.59375q0 0.0625 -0.015625 0.1875l-3.09375 0q0.046875 0.671875 0.390625 1.046875q0.34375 0.359375 0.875 0.359375q0.375 0 0.640625 -0.203125q0.28125 -0.203125 0.453125 -0.65625zm-2.3125 -1.125l2.3125 0q-0.046875 -0.53125 -0.265625 -0.796875q-0.328125 -0.40625 -0.875 -0.40625q-0.484375 0 -0.8125 0.328125q-0.328125 0.328125 -0.359375 0.875zm6.7617188 1.125l0.71875 0.09375q-0.171875 0.640625 -0.640625 1.0q-0.453125 0.34375 -1.1875 0.34375q-0.90625 0 -1.4375 -0.5625q-0.53125 -0.5625 -0.53125 -1.578125q0 -1.046875 0.53125 -1.625q0.546875 -0.578125 1.40625 -0.578125q0.828125 0 1.359375 0.578125q0.53125 0.5625 0.53125 1.59375q0 0.0625 -0.015625 0.1875l-3.09375 0q0.046875 0.671875 0.390625 1.046875q0.34375 0.359375 0.875 0.359375q0.375 0 0.640625 -0.203125q0.28125 -0.203125 0.453125 -0.65625zm-2.3125 -1.125l2.3125 0q-0.046875 -0.53125 -0.265625 -0.796875q-0.328125 -0.40625 -0.875 -0.40625q-0.484375 0 -0.8125 0.328125q-0.328125 0.328125 -0.359375 0.875zm6.6054688 2.46875l0 -0.53125q-0.390625 0.625 -1.15625 0.625q-0.5 0 -0.921875 -0.265625q-0.40625 -0.28125 -0.640625 -0.765625q-0.21875 -0.5 -0.21875 -1.140625q0 -0.609375 0.203125 -1.109375q0.203125 -0.515625 0.609375 -0.78125q0.421875 -0.28125 0.9375 -0.28125q0.375 0 0.65625 0.171875q0.296875 0.15625 0.484375 0.40625l0 -2.0625l0.703125 0l0 5.734375l-0.65625 0zm-2.21875 -2.078125q0 0.796875 0.328125 1.203125q0.34375 0.390625 0.796875 0.390625q0.46875 0 0.78125 -0.375q0.328125 -0.375 0.328125 -1.15625q0 -0.84375 -0.328125 -1.234375q-0.328125 -0.40625 -0.8125 -0.40625q-0.46875 0 -0.78125 0.390625q-0.3125 0.375 -0.3125 1.1875zm6.296875 2.078125l0 -5.734375l1.96875 0q0.671875 0 1.015625 0.09375q0.5 0.109375 0.84375 0.40625q0.453125 0.375 0.671875 0.984375q0.234375 0.59375 0.234375 1.359375q0 0.640625 -0.15625 1.15625q-0.15625 0.5 -0.390625 0.828125q-0.234375 0.328125 -0.53125 0.515625q-0.28125 0.1875 -0.6875 0.296875q-0.390625 0.09375 -0.90625 0.09375l-2.0625 0zm0.75 -0.671875l1.21875 0q0.578125 0 0.890625 -0.109375q0.328125 -0.109375 0.515625 -0.296875q0.265625 -0.265625 0.421875 -0.71875q0.15625 -0.46875 0.15625 -1.109375q0 -0.90625 -0.296875 -1.375q-0.296875 -0.484375 -0.71875 -0.65625q-0.3125 -0.109375 -0.984375 -0.109375l-1.203125 0l0 4.375zm4.996109 0.671875l0 -5.734375l2.140625 0q0.65625 0 1.046875 0.1875q0.40625 0.171875 0.625 0.53125q0.234375 0.359375 0.234375 0.75q0 0.375 -0.203125 0.703125q-0.203125 0.3125 -0.609375 0.515625q0.53125 0.15625 0.796875 0.53125q0.28125 0.359375 0.28125 0.859375q0 0.390625 -0.171875 0.75q-0.15625 0.34375 -0.40625 0.53125q-0.25 0.1875 -0.640625 0.28125q-0.375 0.09375 -0.921875 0.09375l-2.171875 0zm0.75 -3.328125l1.234375 0q0.515625 0 0.734375 -0.0625q0.28125 -0.078125 0.421875 -0.28125q0.15625 -0.203125 0.15625 -0.5q0 -0.28125 -0.140625 -0.5q-0.140625 -0.21875 -0.390625 -0.296875q-0.25 -0.078125 -0.875 -0.078125l-1.140625 0l0 1.71875zm0 2.65625l1.421875 0q0.375 0 0.515625 -0.03125q0.265625 -0.046875 0.4375 -0.15625q0.1875 -0.109375 0.296875 -0.3125q0.109375 -0.21875 0.109375 -0.484375q0 -0.328125 -0.171875 -0.5625q-0.15625 -0.234375 -0.453125 -0.328125q-0.28125 -0.09375 -0.828125 -0.09375l-1.328125 0l0 1.96875z" fill-rule="nonzero"></path><path fill="#f4cccc" d="m210.96738 33.683895l0 0c0 -1.7102451 14.411636 -3.096674 32.189285 -3.096674c17.777664 0 32.189285 1.3864288 32.189285 3.096674l0 12.3867035c0 1.710247 -14.411621 3.0966759 -32.189285 3.0966759c-17.777649 0 -32.189285 -1.3864288 -32.189285 -3.0966759z" fill-rule="nonzero"></path><path fill="#000000" fill-opacity="0.0" d="m275.34595 33.683895l0 0c0 1.710247 -14.411621 3.0966759 -32.189285 3.0966759c-17.777649 0 -32.189285 -1.3864288 -32.189285 -3.0966759" fill-rule="nonzero"></path><path fill="#000000" fill-opacity="0.0" d="m210.96738 33.683895l0 0c0 -1.7102451 14.411636 -3.096674 32.189285 -3.096674c17.777664 0 32.189285 1.3864288 32.189285 3.096674l0 12.3867035c0 1.710247 -14.411621 3.0966759 -32.189285 3.0966759c-17.777649 0 -32.189285 -1.3864288 -32.189285 -3.0966759z" fill-rule="nonzero"></path><path stroke="#990000" stroke-width="1.0" stroke-linejoin="round" stroke-linecap="butt" d="m275.34595 33.683895l0 0c0 1.710247 -14.411621 3.0966759 -32.189285 3.0966759c-17.777649 0 -32.189285 -1.3864288 -32.189285 -3.0966759" fill-rule="nonzero"></path><path stroke="#990000" stroke-width="1.0" stroke-linejoin="round" stroke-linecap="butt" d="m210.96738 33.683895l0 0c0 -1.7102451 14.411636 -3.096674 32.189285 -3.096674c17.777664 0 32.189285 1.3864288 32.189285 3.096674l0 12.3867035c0 1.710247 -14.411621 3.0966759 -32.189285 3.0966759c-17.777649 0 -32.189285 -1.3864288 -32.189285 -3.0966759z" fill-rule="nonzero"></path><path fill="#f4cccc" d="m210.96829 145.84195l0 0c0 -1.7102509 14.411636 -3.0966797 32.189285 -3.0966797c17.777664 0 32.189285 1.3864288 32.189285 3.0966797l0 12.3867035c0 1.7102356 -14.411621 3.0966644 -32.189285 3.0966644c-17.777649 0 -32.189285 -1.3864288 -32.189285 -3.0966644z" fill-rule="nonzero"></path><path fill="#000000" fill-opacity="0.0" d="m275.34686 145.84195l0 0c0 1.7102356 -14.411621 3.0966644 -32.189285 3.0966644c-17.777649 0 -32.189285 -1.3864288 -32.189285 -3.0966644" fill-rule="nonzero"></path><path fill="#000000" fill-opacity="0.0" d="m210.96829 145.84195l0 0c0 -1.7102509 14.411636 -3.0966797 32.189285 -3.0966797c17.777664 0 32.189285 1.3864288 32.189285 3.0966797l0 12.3867035c0 1.7102356 -14.411621 3.0966644 -32.189285 3.0966644c-17.777649 0 -32.189285 -1.3864288 -32.189285 -3.0966644z" fill-rule="nonzero"></path><path stroke="#990000" stroke-width="1.0" stroke-linejoin="round" stroke-linecap="butt" d="m275.34686 145.84195l0 0c0 1.7102356 -14.411621 3.0966644 -32.189285 3.0966644c-17.777649 0 -32.189285 -1.3864288 -32.189285 -3.0966644" fill-rule="nonzero"></path><path stroke="#990000" stroke-width="1.0" stroke-linejoin="round" stroke-linecap="butt" d="m210.96829 145.84195l0 0c0 -1.7102509 14.411636 -3.0966797 32.189285 -3.0966797c17.777664 0 32.189285 1.3864288 32.189285 3.0966797l0 12.3867035c0 1.7102356 -14.411621 3.0966644 -32.189285 3.0966644c-17.777649 0 -32.189285 -1.3864288 -32.189285 -3.0966644z" fill-rule="nonzero"></path><path fill="#f4cccc" d="m210.96829 131.77802l0 0c0 -1.7102509 14.411636 -3.0966797 32.189285 -3.0966797c17.777664 0 32.189285 1.3864288 32.189285 3.0966797l0 12.3867035c0 1.7102509 -14.411621 3.0966797 -32.189285 3.0966797c-17.777649 0 -32.189285 -1.3864288 -32.189285 -3.0966797z" fill-rule="nonzero"></path><path fill="#000000" fill-opacity="0.0" d="m275.34686 131.77802l0 0c0 1.7102509 -14.411621 3.0966797 -32.189285 3.0966797c-17.777649 0 -32.189285 -1.3864288 -32.189285 -3.0966797" fill-rule="nonzero"></path><path fill="#000000" fill-opacity="0.0" d="m210.96829 131.77802l0 0c0 -1.7102509 14.411636 -3.0966797 32.189285 -3.0966797c17.777664 0 32.189285 1.3864288 32.189285 3.0966797l0 12.3867035c0 1.7102509 -14.411621 3.0966797 -32.189285 3.0966797c-17.777649 0 -32.189285 -1.3864288 -32.189285 -3.0966797z" fill-rule="nonzero"></path><path stroke="#990000" stroke-width="1.0" stroke-linejoin="round" stroke-linecap="butt" d="m275.34686 131.77802l0 0c0 1.7102509 -14.411621 3.0966797 -32.189285 3.0966797c-17.777649 0 -32.189285 -1.3864288 -32.189285 -3.0966797" fill-rule="nonzero"></path><path stroke="#990000" stroke-width="1.0" stroke-linejoin="round" stroke-linecap="butt" d="m210.96829 131.77802l0 0c0 -1.7102509 14.411636 -3.0966797 32.189285 -3.0966797c17.777664 0 32.189285 1.3864288 32.189285 3.0966797l0 12.3867035c0 1.7102509 -14.411621 3.0966797 -32.189285 3.0966797c-17.777649 0 -32.189285 -1.3864288 -32.189285 -3.0966797z" fill-rule="nonzero"></path><path fill="#000000" d="m226.86656 140.35596l0.59375 -0.0625q0.046875 0.46875 0.203125 0.734375q0.171875 0.265625 0.46875 0.4375q0.3125 0.15625 0.703125 0.15625q0.5625 0 0.859375 -0.265625q0.3125 -0.28125 0.3125 -0.71875q0 -0.25 -0.109375 -0.4375q-0.109375 -0.1875 -0.34375 -0.3125q-0.21875 -0.125 -0.96875 -0.34375q-0.65625 -0.1875 -0.9375 -0.390625q-0.28125 -0.203125 -0.4375 -0.5q-0.15625 -0.3125 -0.15625 -0.703125q0 -0.6875 0.4375 -1.125q0.453125 -0.453125 1.21875 -0.453125q0.515625 0 0.90625 0.21875q0.40625 0.203125 0.609375 0.59375q0.21875 0.375 0.234375 0.90625l-0.59375 0.046875q-0.046875 -0.5625 -0.34375 -0.828125q-0.28125 -0.265625 -0.796875 -0.265625q-0.53125 0 -0.8125 0.234375q-0.265625 0.234375 -0.265625 0.609375q0 0.34375 0.203125 0.546875q0.203125 0.1875 0.90625 0.375q0.703125 0.203125 0.984375 0.34375q0.421875 0.21875 0.640625 0.578125q0.21875 0.34375 0.21875 0.84375q0 0.5 -0.234375 0.90625q-0.21875 0.390625 -0.625 0.609375q-0.390625 0.21875 -0.953125 0.21875q-0.859375 0 -1.390625 -0.53125q-0.515625 -0.53125 -0.53125 -1.421875zm6.828125 0.5l0.59375 0.09375q-0.140625 0.671875 -0.53125 1.015625q-0.390625 0.328125 -0.96875 0.328125q-0.71875 0 -1.171875 -0.546875q-0.4375 -0.546875 -0.4375 -1.59375q0 -1.0625 0.4375 -1.625q0.453125 -0.578125 1.15625 -0.578125q0.65625 0 1.09375 0.5625q0.4375 0.546875 0.4375 1.609375l0 0.1875l-2.53125 0q0.03125 0.6875 0.3125 1.046875q0.296875 0.359375 0.703125 0.359375q0.65625 0 0.90625 -0.859375zm-1.890625 -1.125l1.890625 0q-0.03125 -0.546875 -0.21875 -0.8125q-0.28125 -0.390625 -0.71875 -0.390625q-0.375 0 -0.65625 0.328125q-0.265625 0.328125 -0.296875 0.875zm3.2109375 2.46875l0 -4.15625l0.515625 0l0 0.640625q0.203125 -0.4375 0.359375 -0.578125q0.171875 -0.15625 0.390625 -0.15625q0.28125 0 0.578125 0.234375l-0.1875 0.65625q-0.21875 -0.15625 -0.421875 -0.15625q-0.1875 0 -0.34375 0.125q-0.140625 0.125 -0.203125 0.359375q-0.109375 0.40625 -0.109375 0.859375l0 2.171875l-0.578125 0zm3.1367188 0l-1.296875 -4.15625l0.609375 0l0.734375 2.484375q0.125 0.421875 0.21875 0.84375q0.078125 -0.328125 0.21875 -0.796875l0.75 -2.53125l0.59375 0l-1.28125 4.15625l-0.546875 0zm2.328125 -4.921875l0 -0.8125l0.578125 0l0 0.8125l-0.578125 0zm0 4.921875l0 -4.15625l0.578125 0l0 4.15625l-0.578125 0zm1.4570312 0l0 -4.15625l0.515625 0l0 0.59375q0.1875 -0.34375 0.453125 -0.515625q0.28126526 -0.171875 0.64064026 -0.171875q0.265625 0 0.5 0.109375q0.234375 0.109375 0.375 0.28125q0.140625 0.171875 0.203125 0.453125q0.078125 0.28125 0.078125 0.859375l0 2.546875l-0.578125 0l0 -2.53125q0 -0.453125 -0.078125 -0.65625q-0.078125 -0.21875 -0.25 -0.328125q-0.15625 -0.125 -0.375 -0.125q-0.421875 0 -0.67189026 0.3125q-0.234375 0.3125 -0.234375 1.0625l0 2.265625l-0.578125 0zm3.5390778 0.34375l0.5625 0.109375q0.046875 0.328125 0.234375 0.484375q0.203125 0.171875 0.546875 0.171875q0.375 0 0.59375 -0.1875q0.234375 -0.1875 0.3125 -0.546875q0.046875 -0.21875 0.046875 -0.921875q-0.1875 0.265625 -0.421875 0.40625q-0.234375 0.140625 -0.515625 0.140625q-0.609375 0 -1.015625 -0.515625q-0.453125 -0.59375 -0.453125 -1.59375q0 -0.671875 0.203125 -1.171875q0.203125 -0.5 0.53125 -0.734375q0.328125 -0.234375 0.734375 -0.234375q0.3125 0 0.546875 0.15625q0.25 0.140625 0.453125 0.4375l0 -0.5l0.53125 0l0 3.59375q0 0.953125 -0.15625 1.359375q-0.15625 0.421875 -0.515625 0.65625q-0.359375 0.234375 -0.859375 0.234375q-0.65625 0 -1.015625 -0.359375q-0.359375 -0.359375 -0.34375 -0.984375zm0.484375 -2.5q0 0.828125 0.265625 1.203125q0.265625 0.375 0.65625 0.375q0.390625 0 0.65625 -0.359375q0.28125 -0.375 0.28125 -1.1875q0 -0.78125 -0.28125 -1.15625q-0.28125 -0.375 -0.671875 -0.375q-0.359375 0 -0.640625 0.375q-0.265625 0.375 -0.265625 1.125zm5.1757812 2.15625l0 -5.734375l1.609375 0q0.609375 0 0.921875 0.109375q0.40625 0.140625 0.703125 0.5q0.3125 0.359375 0.46875 0.921875q0.171875 0.546875 0.171875 1.3125q0 0.96875 -0.28125 1.65625q-0.28125 0.671875 -0.734375 0.953125q-0.453125 0.28125 -1.171875 0.28125l-1.6875 0zm0.609375 -0.671875l1.0 0q0.609375 0 0.921875 -0.203125q0.3125 -0.203125 0.484375 -0.640625q0.21875 -0.578125 0.21875 -1.390625q0 -0.875 -0.234375 -1.359375q-0.234375 -0.5 -0.609375 -0.671875q-0.25 -0.109375 -0.796875 -0.109375l-0.984375 0l0 4.375zm4.109375 0.671875l0 -5.734375l1.765625 0q0.53125 0 0.84375 0.171875q0.3125 0.171875 0.515625 0.53125q0.203125 0.34375 0.203125 0.765625q0 0.390625 -0.171875 0.71875q-0.171875 0.3125 -0.484375 0.5q0.40625 0.140625 0.640625 0.5q0.234375 0.359375 0.234375 0.890625q0 0.515625 -0.21875 0.90625q-0.203125 0.390625 -0.5625 0.578125q-0.359375 0.171875 -0.96875 0.171875l-1.796875 0zm0.625 -3.328125l1.015625 0q0.390625 0 0.5625 -0.046875q0.25 -0.078125 0.375 -0.265625q0.125 -0.203125 0.125 -0.53125q0 -0.3125 -0.125 -0.515625q-0.109375 -0.203125 -0.3125 -0.28125q-0.1875 -0.078125 -0.703125 -0.078125l-0.9375 0l0 1.71875zm0 2.65625l1.171875 0q0.375 0 0.5625 -0.078125q0.265625 -0.09375 0.40625 -0.328125q0.140625 -0.234375 0.140625 -0.59375q0 -0.3125 -0.140625 -0.53125q-0.125 -0.234375 -0.359375 -0.328125q-0.21875 -0.109375 -0.703125 -0.109375l-1.078125 0l0 1.96875z" fill-rule="nonzero"></path><path fill="#f4cccc" d="m210.96829 117.71503l0 0c0 -1.7102509 14.411636 -3.0966797 32.189285 -3.0966797c17.777664 0 32.189285 1.3864288 32.189285 3.0966797l0 12.3867035c0 1.7102356 -14.411621 3.0966644 -32.189285 3.0966644c-17.777649 0 -32.189285 -1.3864288 -32.189285 -3.0966644z" fill-rule="nonzero"></path><path fill="#000000" fill-opacity="0.0" d="m275.34686 117.71503l0 0c0 1.7102432 -14.411621 3.096672 -32.189285 3.096672c-17.777649 0 -32.189285 -1.3864288 -32.189285 -3.096672" fill-rule="nonzero"></path><path fill="#000000" fill-opacity="0.0" d="m210.96829 117.71503l0 0c0 -1.7102509 14.411636 -3.0966797 32.189285 -3.0966797c17.777664 0 32.189285 1.3864288 32.189285 3.0966797l0 12.3867035c0 1.7102356 -14.411621 3.0966644 -32.189285 3.0966644c-17.777649 0 -32.189285 -1.3864288 -32.189285 -3.0966644z" fill-rule="nonzero"></path><path stroke="#990000" stroke-width="1.0" stroke-linejoin="round" stroke-linecap="butt" d="m275.34686 117.71503l0 0c0 1.7102432 -14.411621 3.096672 -32.189285 3.096672c-17.777649 0 -32.189285 -1.3864288 -32.189285 -3.096672" fill-rule="nonzero"></path><path stroke="#990000" stroke-width="1.0" stroke-linejoin="round" stroke-linecap="butt" d="m210.96829 117.71503l0 0c0 -1.7102509 14.411636 -3.0966797 32.189285 -3.0966797c17.777664 0 32.189285 1.3864288 32.189285 3.0966797l0 12.3867035c0 1.7102356 -14.411621 3.0966644 -32.189285 3.0966644c-17.777649 0 -32.189285 -1.3864288 -32.189285 -3.0966644z" fill-rule="nonzero"></path><path fill="#d9d2e9" d="m324.0 83.1576l0 0c0 -3.4210434 2.7733154 -6.1943436 6.194336 -6.1943436l44.115265 0c1.6428223 0 3.2183838 0.6526184 4.380066 1.8142776c1.1616516 1.1616669 1.81427 2.7372284 1.81427 4.380066l0 24.776657c0 3.4210434 -2.7733154 6.194351 -6.194336 6.194351l-44.115265 0c-3.4210205 0 -6.194336 -2.7733078 -6.194336 -6.194351z" fill-rule="nonzero"></path><path stroke="#351c75" stroke-width="1.0" stroke-linejoin="round" stroke-linecap="butt" d="m324.0 83.1576l0 0c0 -3.4210434 2.7733154 -6.1943436 6.194336 -6.1943436l44.115265 0c1.6428223 0 3.2183838 0.6526184 4.380066 1.8142776c1.1616516 1.1616669 1.81427 2.7372284 1.81427 4.380066l0 24.776657c0 3.4210434 -2.7733154 6.194351 -6.194336 6.194351l-44.115265 0c-3.4210205 0 -6.194336 -2.7733078 -6.194336 -6.194351z" fill-rule="nonzero"></path><path fill="#000000" d="m336.81427 95.116554l-1.15625 3.109375l-0.75 0l1.546875 -4.078125l-0.625 -1.65625l0.75 0l2.140625 5.734375l-0.75 0l-1.15625 -3.109375zm2.25 1.390625l0 -0.703125l2.171875 0l0 0.703125l-2.171875 0zm2.6640625 0.484375l0.6875 -0.109375q0.0625 0.40625 0.328125 0.640625q0.265625 0.21875 0.75 0.21875q0.484375 0 0.71875 -0.1875q0.234375 -0.203125 0.234375 -0.46875q0 -0.25 -0.203125 -0.375q-0.140625 -0.09375 -0.71875 -0.25q-0.78125 -0.1875 -1.078125 -0.328125q-0.296875 -0.140625 -0.453125 -0.390625q-0.15625 -0.265625 -0.15625 -0.5625q0 -0.28125 0.125 -0.515625q0.140625 -0.234375 0.359375 -0.390625q0.15625 -0.125 0.4375 -0.203125q0.28125 -0.09375 0.609375 -0.09375q0.484375 0 0.859375 0.140625q0.375 0.140625 0.546875 0.390625q0.171875 0.234375 0.234375 0.640625l-0.6875 0.09375q-0.046875 -0.328125 -0.265625 -0.5q-0.21875 -0.1875 -0.640625 -0.1875q-0.484375 0 -0.6875 0.171875q-0.203125 0.15625 -0.203125 0.375q0 0.125 0.078125 0.234375q0.09375 0.125 0.28125 0.1875q0.09375 0.046875 0.609375 0.1875q0.75 0.203125 1.046875 0.328125q0.296875 0.125 0.453125 0.375q0.171875 0.234375 0.171875 0.59375q0 0.34375 -0.203125 0.65625q-0.203125 0.3125 -0.59375 0.484375q-0.375 0.171875 -0.875 0.171875q-0.796875 0 -1.234375 -0.328125q-0.421875 -0.34375 -0.53125 -1.0zm7.125 -0.109375l0.71875 0.09375q-0.171875 0.640625 -0.640625 1.0q-0.453125 0.34375 -1.1875 0.34375q-0.90625 0 -1.4375 -0.5625q-0.53125 -0.5625 -0.53125 -1.578125q0 -1.046875 0.53125 -1.625q0.546875 -0.578125 1.40625 -0.578125q0.828125 0 1.359375 0.578125q0.53125 0.5625 0.53125 1.59375q0 0.0625 -0.015625 0.1875l-3.09375 0q0.046875 0.671875 0.390625 1.046875q0.34375 0.359375 0.875 0.359375q0.375 0 0.640625 -0.203125q0.28125 -0.203125 0.453125 -0.65625zm-2.3125 -1.125l2.3125 0q-0.046875 -0.53125 -0.265625 -0.796875q-0.328125 -0.40625 -0.875 -0.40625q-0.484375 0 -0.8125 0.328125q-0.328125 0.328125 -0.359375 0.875zm3.9023438 2.46875l0 -4.15625l0.640625 0l0 0.640625q0.234375 -0.453125 0.4375 -0.59375q0.21875 -0.140625 0.453125 -0.140625q0.359375 0 0.734375 0.234375l-0.25 0.65625q-0.25 -0.15625 -0.515625 -0.15625q-0.234375 0 -0.421875 0.140625q-0.171875 0.140625 -0.25 0.375q-0.125 0.375 -0.125 0.828125l0 2.171875l-0.703125 0zm3.8359375 0l-1.578125 -4.15625l0.734375 0l0.890625 2.484375q0.140625 0.40625 0.265625 0.84375q0.09375 -0.328125 0.265625 -0.796875l0.921875 -2.53125l0.71875 0l-1.5625 4.15625l-0.65625 0zm2.84375 -4.921875l0 -0.8125l0.703125 0l0 0.8125l-0.703125 0zm0 4.921875l0 -4.15625l0.703125 0l0 4.15625l-0.703125 0zm4.4804688 -1.515625l0.6875 0.078125q-0.109375 0.71875 -0.578125 1.125q-0.46875 0.40625 -1.140625 0.40625q-0.859375 0 -1.375 -0.546875q-0.515625 -0.5625 -0.515625 -1.609375q0 -0.671875 0.21875 -1.171875q0.234375 -0.5 0.6875 -0.75q0.453125 -0.265625 0.984375 -0.265625q0.671875 0 1.09375 0.34375q0.4375 0.34375 0.5625 0.96875l-0.6875 0.109375q-0.09375 -0.421875 -0.34375 -0.625q-0.25 -0.21875 -0.59375 -0.21875q-0.53125 0 -0.875 0.390625q-0.328125 0.375 -0.328125 1.203125q0 0.828125 0.3125 1.21875q0.328125 0.375 0.84375 0.375q0.421875 0 0.6875 -0.25q0.28125 -0.265625 0.359375 -0.78125zm4.140625 0.171875l0.71875 0.09375q-0.171875 0.640625 -0.640625 1.0q-0.453125 0.34375 -1.1875 0.34375q-0.90625 0 -1.4375 -0.5625q-0.53125 -0.5625 -0.53125 -1.578125q0 -1.046875 0.53125 -1.625q0.546875 -0.578125 1.40625 -0.578125q0.828125 0 1.359375 0.578125q0.53125 0.5625 0.53125 1.59375q0 0.0625 -0.015625 0.1875l-3.09375 0q0.046875 0.671875 0.390625 1.046875q0.34375 0.359375 0.875 0.359375q0.375 0 0.640625 -0.203125q0.28125 -0.203125 0.453125 -0.65625zm-2.3125 -1.125l2.3125 0q-0.046875 -0.53125 -0.265625 -0.796875q-0.328125 -0.40625 -0.875 -0.40625q-0.484375 0 -0.8125 0.328125q-0.328125 0.328125 -0.359375 0.875z" fill-rule="nonzero"></path><path fill="#000000" fill-opacity="0.0" d="m275.34595 53.94024l24.326813 0l0 41.6063l24.334625 0" fill-rule="nonzero"></path><path stroke="#000000" stroke-width="1.0" stroke-linejoin="round" stroke-linecap="butt" d="m275.34598 53.94024l24.326813 0l0 41.6063l18.334595 0" fill-rule="evenodd"></path><path fill="#000000" stroke="#000000" stroke-width="1.0" stroke-linecap="butt" d="m318.0074 97.19827l4.538086 -1.6517334l-4.538086 -1.6517334z" fill-rule="evenodd"></path><path fill="#000000" fill-opacity="0.0" d="m275.34686 137.97137l24.326355 0l0 -42.4252l24.335083 0" fill-rule="nonzero"></path><path stroke="#000000" stroke-width="1.0" stroke-linejoin="round" stroke-linecap="butt" d="m275.34686 137.97136l24.326355 0l0 -42.425194l18.335052 0" fill-rule="evenodd"></path><path fill="#000000" stroke="#000000" stroke-width="1.0" stroke-linecap="butt" d="m318.00827 97.1979l4.5381165 -1.6517334l-4.5381165 -1.6517334z" fill-rule="evenodd"></path><path fill="#f4cccc" d="m7.3000875 91.54462l15.226597 0c2.102354 0 3.8066483 1.790863 3.8066483 4.0c0 2.2091446 -1.7042942 4.0 -3.8066483 4.0l-15.226597 0l0 0c-2.102354 0 -3.8066492 -1.7908554 -3.8066492 -4.0c0 -2.209137 1.7042952 -4.0 3.8066492 -4.0z" fill-rule="nonzero"></path><path fill="#000000" fill-opacity="0.0" d="m22.526684 99.54462c-2.102354 0 -3.8066483 -1.7908554 -3.8066483 -4.0c0 -2.209137 1.7042942 -4.0 3.8066483 -4.0" fill-rule="nonzero"></path><path fill="#000000" fill-opacity="0.0" d="m7.3000875 91.54462l15.226597 0c2.102354 0 3.8066483 1.790863 3.8066483 4.0c0 2.2091446 -1.7042942 4.0 -3.8066483 4.0l-15.226597 0l0 0c-2.102354 0 -3.8066492 -1.7908554 -3.8066492 -4.0c0 -2.209137 1.7042952 -4.0 3.8066492 -4.0z" fill-rule="nonzero"></path><path stroke="#990000" stroke-width="1.0" stroke-linejoin="round" stroke-linecap="butt" d="m22.526684 99.54462c-2.102354 0 -3.8066483 -1.7908554 -3.8066483 -4.0c0 -2.209137 1.7042942 -4.0 3.8066483 -4.0" fill-rule="nonzero"></path><path stroke="#990000" stroke-width="1.0" stroke-linejoin="round" stroke-linecap="butt" d="m7.3000875 91.54462l15.226597 0c2.102354 0 3.8066483 1.790863 3.8066483 4.0c0 2.2091446 -1.7042942 4.0 -3.8066483 4.0l-15.226597 0l0 0c-2.102354 0 -3.8066492 -1.7908554 -3.8066492 -4.0c0 -2.209137 1.7042952 -4.0 3.8066492 -4.0z" fill-rule="nonzero"></path><path fill="#c9daf8" d="m104.96326 41.551304l0 0c0 -3.4210434 2.7733002 -6.1943474 6.1943436 -6.1943474l51.98925 0c1.6428528 0 3.2184143 0.6526146 4.380081 1.8142815c1.1616516 1.1616669 1.81427 2.7372246 1.81427 4.380066l0 24.776653c0 3.421051 -2.7733002 6.194351 -6.194351 6.194351l-51.98925 0c-3.4210434 0 -6.1943436 -2.7733002 -6.1943436 -6.194351z" fill-rule="nonzero"></path><path stroke="#1155cc" stroke-width="1.0" stroke-linejoin="round" stroke-linecap="butt" d="m104.96326 41.551304l0 0c0 -3.4210434 2.7733002 -6.1943474 6.1943436 -6.1943474l51.98925 0c1.6428528 0 3.2184143 0.6526146 4.380081 1.8142815c1.1616516 1.1616669 1.81427 2.7372246 1.81427 4.380066l0 24.776653c0 3.421051 -2.7733002 6.194351 -6.194351 6.194351l-51.98925 0c-3.4210434 0 -6.1943436 -2.7733002 -6.1943436 -6.194351z" fill-rule="nonzero"></path><path fill="#000000" d="m121.12098 50.385258l0.578125 -0.109375q0.046875 0.4375 0.265625 0.65625q0.234375 0.203125 0.609375 0.203125q0.375 0 0.578125 -0.1875q0.203125 -0.1875 0.203125 -0.46875q0 -0.25 -0.171875 -0.390625q-0.125 -0.09375 -0.59375 -0.234375q-0.671875 -0.203125 -0.90625 -0.34375q-0.21875 -0.140625 -0.34375 -0.375q-0.125 -0.25 -0.125 -0.5625q0 -0.53125 0.34375 -0.859375q0.34375 -0.34375 0.9375 -0.34375q0.390625 0 0.671875 0.140625q0.28125 0.140625 0.4375 0.375q0.15625 0.21875 0.21875 0.65625l-0.5625 0.09375q-0.078125 -0.6875 -0.75 -0.6875q-0.375 0 -0.5625 0.15625q-0.171875 0.15625 -0.171875 0.390625q0 0.21875 0.171875 0.359375q0.109375 0.078125 0.625 0.25q0.71875 0.234375 0.921875 0.375q0.21875 0.125 0.328125 0.359375q0.125 0.234375 0.125 0.546875q0 0.59375 -0.375 0.96875q-0.375 0.359375 -1.03125 0.359375q-1.21875 0 -1.421875 -1.328125zm3.5 2.828125l0 -5.75l0.53125 0l0 0.546875q0.1875 -0.34375 0.421875 -0.484375q0.25 -0.15625 0.5625 -0.15625q0.390625 0 0.71875 0.25q0.328125 0.234375 0.515625 0.71875q0.203125 0.484375 0.203125 1.171875q0 1.0625 -0.453125 1.640625q-0.4375 0.5625 -1.03125 0.5625q-0.265625 0 -0.5 -0.140625q-0.21875 -0.140625 -0.390625 -0.390625l0 2.03125l-0.578125 0zm0.515625 -3.640625q0 0.796875 0.265625 1.1875q0.28125 0.375 0.65625 0.375q0.375 0 0.640625 -0.390625q0.28125 -0.40625 0.28125 -1.21875q0 -0.8125 -0.265625 -1.203125q-0.265625 -0.390625 -0.65625 -0.390625q-0.34375 0 -0.640625 0.421875q-0.28125 0.40625 -0.28125 1.21875zm5.460945 0.703125l0.59375 0.09375q-0.140625 0.671875 -0.53125 1.015625q-0.390625 0.328125 -0.96875 0.328125q-0.71875 0 -1.171875 -0.546875q-0.4375 -0.546875 -0.4375 -1.59375q0 -1.0625 0.4375 -1.625q0.453125 -0.578125 1.15625 -0.578125q0.65625 0 1.09375 0.5625q0.4375 0.546875 0.4375 1.609375l0 0.1875l-2.53125 0q0.03125 0.6875 0.3125 1.046875q0.296875 0.359375 0.703125 0.359375q0.65625 0 0.90625 -0.859375zm-1.890625 -1.125l1.890625 0q-0.03125 -0.546875 -0.21875 -0.8125q-0.28125 -0.390625 -0.71875 -0.390625q-0.375 0 -0.65625 0.328125q-0.265625 0.328125 -0.296875 0.875zm5.5390625 1.125l0.59375 0.09375q-0.140625 0.671875 -0.53125 1.015625q-0.390625 0.328125 -0.96875 0.328125q-0.71875 0 -1.171875 -0.546875q-0.4375 -0.546875 -0.4375 -1.59375q0 -1.0625 0.4375 -1.625q0.453125 -0.578125 1.15625 -0.578125q0.65625 0 1.09375 0.5625q0.4375 0.546875 0.4375 1.609375l0 0.1875l-2.53125 0q0.03125 0.6875 0.3125 1.046875q0.296875 0.359375 0.703125 0.359375q0.65625 0 0.90625 -0.859375zm-1.890625 -1.125l1.890625 0q-0.03125 -0.546875 -0.21875 -0.8125q-0.28125 -0.390625 -0.71875 -0.390625q-0.375 0 -0.65625 0.328125q-0.265625 0.328125 -0.296875 0.875zm5.4140625 2.46875l0 -0.53125q-0.15625 0.3125 -0.40625 0.46875q-0.234375 0.15625 -0.515625 0.15625q-0.609375 0 -1.046875 -0.5625q-0.4375 -0.578125 -0.4375 -1.609375q0 -0.703125 0.1875 -1.1875q0.203125 -0.5 0.53125 -0.734375q0.328125 -0.25 0.71875 -0.25q0.28125 0 0.53125 0.15625q0.25 0.15625 0.40625 0.421875l0 -2.0625l0.578125 0l0 5.734375l-0.546875 0zm-1.8125 -2.078125q0 0.8125 0.265625 1.203125q0.28125 0.390625 0.65625 0.390625q0.375 0 0.640625 -0.375q0.265625 -0.375 0.265625 -1.140625q0 -0.859375 -0.265625 -1.265625q-0.265625 -0.40625 -0.6875 -0.40625q-0.359375 0 -0.625 0.390625q-0.25 0.390625 -0.25 1.203125zm7.2851562 2.078125l0 -0.53125q-0.15625 0.3125 -0.40625 0.46875q-0.234375 0.15625 -0.515625 0.15625q-0.609375 0 -1.046875 -0.5625q-0.4375 -0.578125 -0.4375 -1.609375q0 -0.703125 0.1875 -1.1875q0.203125 -0.5 0.53125 -0.734375q0.328125 -0.25 0.71875 -0.25q0.28125 0 0.53125 0.15625q0.25 0.15625 0.40625 0.421875l0 -2.0625l0.578125 0l0 5.734375l-0.546875 0zm-1.8125 -2.078125q0 0.8125 0.265625 1.203125q0.28125 0.390625 0.65625 0.390625q0.375 0 0.640625 -0.375q0.265625 -0.375 0.265625 -1.140625q0 -0.859375 -0.265625 -1.265625q-0.265625 -0.40625 -0.6875 -0.40625q-0.359375 0 -0.625 0.390625q-0.25 0.390625 -0.25 1.203125zm5.4765625 1.5625q-0.28125 0.296875 -0.59375 0.453125q-0.3125 0.15625 -0.65625 0.15625q-0.53125 0 -0.84375 -0.3125q-0.3125 -0.328125 -0.3125 -0.875q0 -0.359375 0.140625 -0.625q0.15625 -0.28125 0.40625 -0.4375q0.265625 -0.15625 0.78125 -0.234375q0.703125 -0.109375 1.03125 -0.25l0 -0.171875q0 -0.421875 -0.140625 -0.59375q-0.21875 -0.25 -0.671875 -0.25q-0.390625 0 -0.59375 0.171875q-0.203125 0.15625 -0.296875 0.609375l-0.5625 -0.09375q0.125 -0.671875 0.484375 -0.96875q0.375 -0.3125 1.0625 -0.3125q0.53125 0 0.828125 0.203125q0.3125 0.203125 0.390625 0.5q0.078125 0.296875 0.078125 0.875l0 0.9375q0 0.984375 0.03125 1.234375q0.046875 0.25 0.15625 0.5l-0.59375 0q-0.09375 -0.21875 -0.125 -0.515625zm-0.046875 -1.5625q-0.3125 0.15625 -0.9375 0.265625q-0.359375 0.0625 -0.515625 0.140625q-0.140625 0.078125 -0.21875 0.234375q-0.078125 0.140625 -0.078125 0.328125q0 0.296875 0.171875 0.484375q0.1875 0.171875 0.515625 0.171875q0.3125 0 0.5625 -0.15625q0.25 -0.171875 0.375 -0.4375q0.125 -0.265625 0.125 -0.78125l0 -0.25zm2.7578125 1.453125l0.078125 0.609375q-0.234375 0.078125 -0.421875 0.078125q-0.296875 0 -0.484375 -0.125q-0.1875 -0.125 -0.265625 -0.328125q-0.0625 -0.203125 -0.0625 -0.828125l0 -2.390625l-0.421875 0l0 -0.546875l0.421875 0l0 -1.015625l0.578125 -0.421875l0 1.4375l0.578125 0l0 0.546875l-0.578125 0l0 2.4375q0 0.328125 0.046875 0.421875q0.078125 0.140625 0.28125 0.140625q0.09375 0 0.25 -0.015625zm2.7617188 0.109375q-0.28125 0.296875 -0.59375 0.453125q-0.3125 0.15625 -0.65625 0.15625q-0.53125 0 -0.84375 -0.3125q-0.3125 -0.328125 -0.3125 -0.875q0 -0.359375 0.140625 -0.625q0.15625 -0.28125 0.40625 -0.4375q0.265625 -0.15625 0.78125 -0.234375q0.703125 -0.109375 1.03125 -0.25l0 -0.171875q0 -0.421875 -0.140625 -0.59375q-0.21875 -0.25 -0.671875 -0.25q-0.390625 0 -0.59375 0.171875q-0.203125 0.15625 -0.296875 0.609375l-0.5625 -0.09375q0.125 -0.671875 0.484375 -0.96875q0.375 -0.3125 1.0625 -0.3125q0.53125 0 0.828125 0.203125q0.3125 0.203125 0.390625 0.5q0.078125 0.296875 0.078125 0.875l0 0.9375q0 0.984375 0.03125 1.234375q0.046875 0.25 0.15625 0.5l-0.59375 0q-0.09375 -0.21875 -0.125 -0.515625zm-0.046875 -1.5625q-0.3125 0.15625 -0.9375 0.265625q-0.359375 0.0625 -0.515625 0.140625q-0.140625 0.078125 -0.21875 0.234375q-0.078125 0.140625 -0.078125 0.328125q0 0.296875 0.171875 0.484375q0.1875 0.171875 0.515625 0.171875q0.3125 0 0.5625 -0.15625q0.25 -0.171875 0.375 -0.4375q0.125 -0.265625 0.125 -0.78125l0 -0.25z" fill-rule="nonzero"></path><path fill="#000000" d="m123.17176 63.213383l0 -5.75l0.53125 0l0 0.546875q0.1875 -0.34375 0.421875 -0.484375q0.25 -0.15625 0.5625 -0.15625q0.390625 0 0.71875 0.25q0.328125 0.234375 0.515625 0.71875q0.203125 0.484375 0.203125 1.171875q0 1.0625 -0.453125 1.640625q-0.4375 0.5625 -1.03125 0.5625q-0.265625 0 -0.5 -0.140625q-0.21875 -0.140625 -0.390625 -0.390625l0 2.03125l-0.578125 0zm0.515625 -3.640625q0 0.796875 0.265625 1.1875q0.28125 0.375 0.65625 0.375q0.375 0 0.640625 -0.390625q0.28125 -0.40625 0.28125 -1.21875q0 -0.8125 -0.265625 -1.203125q-0.265625 -0.390625 -0.65625 -0.390625q-0.34375 0 -0.640625 0.421875q-0.28125 0.40625 -0.28125 1.21875zm3.1328125 2.046875l0 -4.15625l0.515625 0l0 0.640625q0.203125 -0.4375 0.359375 -0.578125q0.171875 -0.15625 0.39063263 -0.15625q0.28125 0 0.578125 0.234375l-0.1875 0.65625q-0.21875 -0.15625 -0.421875 -0.15625q-0.18750763 0 -0.34375763 0.125q-0.140625 0.125 -0.203125 0.359375q-0.109375 0.40625 -0.109375 0.859375l0 2.171875l-0.578125 0zm1.9648514 -2.078125q0 -1.078125 0.453125 -1.625q0.453125 -0.546875 1.140625 -0.546875q0.6875 0 1.140625 0.546875q0.453125 0.546875 0.453125 1.578125q0 1.125 -0.453125 1.671875q-0.4375 0.546875 -1.140625 0.546875q-0.671875 0 -1.140625 -0.546875q-0.453125 -0.546875 -0.453125 -1.625zm0.59375 0q0 0.8125 0.296875 1.203125q0.296875 0.390625 0.71875 0.390625q0.40625 0 0.703125 -0.390625q0.296875 -0.40625 0.296875 -1.203125q0 -0.796875 -0.296875 -1.1875q-0.296875 -0.390625 -0.734375 -0.390625q-0.40625 0 -0.703125 0.390625q-0.28125 0.390625 -0.28125 1.1875zm5.5078125 0.5625l0.5625 0.078125q-0.09375 0.75 -0.484375 1.140625q-0.390625 0.390625 -0.953125 0.390625q-0.65625 0 -1.09375 -0.546875q-0.4375 -0.546875 -0.4375 -1.625q0 -1.078125 0.4375 -1.625q0.4375 -0.546875 1.125 -0.546875q0.53125 0 0.890625 0.328125q0.359375 0.328125 0.453125 0.984375l-0.546875 0.109375q-0.09375 -0.421875 -0.296875 -0.625q-0.203125 -0.21875 -0.484375 -0.21875q-0.421875 0 -0.703125 0.390625q-0.28125 0.375 -0.28125 1.1875q0 0.84375 0.265625 1.234375q0.265625 0.375 0.6875 0.375q0.328125 0 0.5625 -0.25q0.234375 -0.25 0.296875 -0.78125zm3.375 0.171875l0.59375 0.09375q-0.140625 0.671875 -0.53125 1.015625q-0.390625 0.328125 -0.96875 0.328125q-0.71875 0 -1.171875 -0.546875q-0.4375 -0.546875 -0.4375 -1.59375q0 -1.0625 0.4375 -1.625q0.453125 -0.578125 1.15625 -0.578125q0.65625 0 1.09375 0.5625q0.4375 0.546875 0.4375 1.609375l0 0.1875l-2.53125 0q0.03125 0.6875 0.3125 1.046875q0.296875 0.359375 0.703125 0.359375q0.65625 0 0.90625 -0.859375zm-1.890625 -1.125l1.890625 0q-0.03125 -0.546875 -0.21875 -0.8125q-0.28125 -0.390625 -0.71875 -0.390625q-0.375 0 -0.65625 0.328125q-0.265625 0.328125 -0.296875 0.875zm2.9921875 1.234375l0.578125 -0.109375q0.046875 0.4375 0.265625 0.65625q0.234375 0.203125 0.609375 0.203125q0.375 0 0.578125 -0.1875q0.203125 -0.1875 0.203125 -0.46875q0 -0.25 -0.171875 -0.390625q-0.125 -0.09375 -0.59375 -0.234375q-0.671875 -0.203125 -0.90625 -0.34375q-0.21875 -0.140625 -0.34375 -0.375q-0.125 -0.25 -0.125 -0.5625q0 -0.53125 0.34375 -0.859375q0.34375 -0.34375 0.9375 -0.34375q0.390625 0 0.671875 0.140625q0.28125 0.140625 0.4375 0.375q0.15625 0.21875 0.21875 0.65625l-0.5625 0.09375q-0.078125 -0.6875 -0.75 -0.6875q-0.375 0 -0.5625 0.15625q-0.171875 0.15625 -0.171875 0.390625q0 0.21875 0.171875 0.359375q0.109375 0.078125 0.625 0.25q0.71875 0.234375 0.921875 0.375q0.21875 0.125 0.328125 0.359375q0.125 0.234375 0.125 0.546875q0 0.59375 -0.375 0.96875q-0.375 0.359375 -1.03125 0.359375q-1.21875 0 -1.421875 -1.328125zm3.28125 0l0.578125 -0.109375q0.046875 0.4375 0.265625 0.65625q0.234375 0.203125 0.609375 0.203125q0.375 0 0.578125 -0.1875q0.203125 -0.1875 0.203125 -0.46875q0 -0.25 -0.171875 -0.390625q-0.125 -0.09375 -0.59375 -0.234375q-0.671875 -0.203125 -0.90625 -0.34375q-0.21875 -0.140625 -0.34375 -0.375q-0.125 -0.25 -0.125 -0.5625q0 -0.53125 0.34375 -0.859375q0.34375 -0.34375 0.9375 -0.34375q0.390625 0 0.671875 0.140625q0.28125 0.140625 0.4375 0.375q0.15625 0.21875 0.21875 0.65625l-0.5625 0.09375q-0.078125 -0.6875 -0.75 -0.6875q-0.375 0 -0.5625 0.15625q-0.171875 0.15625 -0.171875 0.390625q0 0.21875 0.171875 0.359375q0.109375 0.078125 0.625 0.25q0.71875 0.234375 0.921875 0.375q0.21875 0.125 0.328125 0.359375q0.125 0.234375 0.125 0.546875q0 0.59375 -0.375 0.96875q-0.375 0.359375 -1.03125 0.359375q-1.21875 0 -1.421875 -1.328125zm3.28125 -0.84375q0 -1.078125 0.453125 -1.625q0.453125 -0.546875 1.140625 -0.546875q0.6875 0 1.140625 0.546875q0.453125 0.546875 0.453125 1.578125q0 1.125 -0.453125 1.671875q-0.4375 0.546875 -1.140625 0.546875q-0.671875 0 -1.140625 -0.546875q-0.453125 -0.546875 -0.453125 -1.625zm0.59375 0q0 0.8125 0.296875 1.203125q0.296875 0.390625 0.71875 0.390625q0.40625 0 0.703125 -0.390625q0.296875 -0.40625 0.296875 -1.203125q0 -0.796875 -0.296875 -1.1875q-0.296875 -0.390625 -0.734375 -0.390625q-0.40625 0 -0.703125 0.390625q-0.28125 0.390625 -0.28125 1.1875zm3.2734375 2.078125l0 -4.15625l0.515625 0l0 0.640625q0.203125 -0.4375 0.359375 -0.578125q0.171875 -0.15625 0.390625 -0.15625q0.28125 0 0.578125 0.234375l-0.1875 0.65625q-0.21875 -0.15625 -0.421875 -0.15625q-0.1875 0 -0.34375 0.125q-0.140625 0.125 -0.203125 0.359375q-0.109375 0.40625 -0.109375 0.859375l0 2.171875l-0.578125 0z" fill-rule="nonzero"></path><path fill="#000000" fill-opacity="0.0" d="m26.333332 95.54462l39.31497 0l0 -41.606297l39.330704 0" fill-rule="nonzero"></path><path stroke="#000000" stroke-width="1.0" stroke-linejoin="round" stroke-linecap="butt" d="m26.333334 95.54462l39.314972 0l0 -41.606297l33.330696 0" fill-rule="evenodd"></path><path fill="#000000" stroke="#000000" stroke-width="1.0" stroke-linecap="butt" d="m98.979004 55.590054l4.5380936 -1.6517334l-4.5380936 -1.6517334z" fill-rule="evenodd"></path><path fill="#000000" fill-opacity="0.0" d="m169.3412 53.939632l20.81308 0l0 0.062992096l20.824722 0" fill-rule="nonzero"></path><path stroke="#000000" stroke-width="1.0" stroke-linejoin="round" stroke-linecap="butt" d="m169.3412 53.939632l20.81308 0l0 0.062992096l14.824722 0" fill-rule="evenodd"></path><path fill="#000000" stroke="#000000" stroke-width="1.0" stroke-linecap="butt" d="m204.979 55.654358l4.538101 -1.6517334l-4.538101 -1.6517334z" fill-rule="evenodd"></path><path fill="#f4cccc" d="m104.96198 227.22746l0 0c0 -1.7102509 14.411636 -3.0966797 32.189293 -3.0966797c17.777649 0 32.189285 1.3864288 32.189285 3.0966797l0 12.386688c0 1.7102509 -14.411636 3.0966797 -32.189285 3.0966797c-17.777657 0 -32.189293 -1.3864288 -32.189293 -3.0966797z" fill-rule="nonzero"></path><path fill="#000000" fill-opacity="0.0" d="m169.34056 227.22746l0 0c0 1.7102356 -14.411636 3.0966644 -32.189285 3.0966644c-17.777657 0 -32.189293 -1.3864288 -32.189293 -3.0966644" fill-rule="nonzero"></path><path fill="#000000" fill-opacity="0.0" d="m104.96198 227.22746l0 0c0 -1.7102509 14.411636 -3.0966797 32.189293 -3.0966797c17.777649 0 32.189285 1.3864288 32.189285 3.0966797l0 12.386688c0 1.7102509 -14.411636 3.0966797 -32.189285 3.0966797c-17.777657 0 -32.189293 -1.3864288 -32.189293 -3.0966797z" fill-rule="nonzero"></path><path stroke="#990000" stroke-width="1.0" stroke-linejoin="round" stroke-linecap="butt" d="m169.34056 227.22746l0 0c0 1.7102356 -14.411636 3.0966644 -32.189285 3.0966644c-17.777657 0 -32.189293 -1.3864288 -32.189293 -3.0966644" fill-rule="nonzero"></path><path stroke="#990000" stroke-width="1.0" stroke-linejoin="round" stroke-linecap="butt" d="m104.96198 227.22746l0 0c0 -1.7102509 14.411636 -3.0966797 32.189293 -3.0966797c17.777649 0 32.189285 1.3864288 32.189285 3.0966797l0 12.386688c0 1.7102509 -14.411636 3.0966797 -32.189285 3.0966797c-17.777657 0 -32.189293 -1.3864288 -32.189293 -3.0966797z" fill-rule="nonzero"></path><path fill="#f4cccc" d="m104.96198 213.16353l0 0c0 -1.7102509 14.411636 -3.0966797 32.189293 -3.0966797c17.777649 0 32.189285 1.3864288 32.189285 3.0966797l0 12.3867035c0 1.7102509 -14.411636 3.0966797 -32.189285 3.0966797c-17.777657 0 -32.189293 -1.3864288 -32.189293 -3.0966797z" fill-rule="nonzero"></path><path fill="#000000" fill-opacity="0.0" d="m169.34056 213.16353l0 0c0 1.7102509 -14.411636 3.0966797 -32.189285 3.0966797c-17.777657 0 -32.189293 -1.3864288 -32.189293 -3.0966797" fill-rule="nonzero"></path><path fill="#000000" fill-opacity="0.0" d="m104.96198 213.16353l0 0c0 -1.7102509 14.411636 -3.0966797 32.189293 -3.0966797c17.777649 0 32.189285 1.3864288 32.189285 3.0966797l0 12.3867035c0 1.7102509 -14.411636 3.0966797 -32.189285 3.0966797c-17.777657 0 -32.189293 -1.3864288 -32.189293 -3.0966797z" fill-rule="nonzero"></path><path stroke="#990000" stroke-width="1.0" stroke-linejoin="round" stroke-linecap="butt" d="m169.34056 213.16353l0 0c0 1.7102509 -14.411636 3.0966797 -32.189285 3.0966797c-17.777657 0 -32.189293 -1.3864288 -32.189293 -3.0966797" fill-rule="nonzero"></path><path stroke="#990000" stroke-width="1.0" stroke-linejoin="round" stroke-linecap="butt" d="m104.96198 213.16353l0 0c0 -1.7102509 14.411636 -3.0966797 32.189293 -3.0966797c17.777649 0 32.189285 1.3864288 32.189285 3.0966797l0 12.3867035c0 1.7102509 -14.411636 3.0966797 -32.189285 3.0966797c-17.777657 0 -32.189293 -1.3864288 -32.189293 -3.0966797z" fill-rule="nonzero"></path><path fill="#000000" d="m126.34659 223.58522l0 -5.734375l1.609375 0q0.609375 0 0.921875 0.109375q0.40625 0.140625 0.703125 0.5q0.3125 0.359375 0.46875 0.921875q0.171875 0.546875 0.171875 1.3125q0 0.96875 -0.28125 1.65625q-0.28125 0.671875 -0.734375 0.953125q-0.453125 0.28125 -1.171875 0.28125l-1.6875 0zm0.609375 -0.671875l1.0 0q0.609375 0 0.921875 -0.203125q0.3125 -0.203125 0.484375 -0.640625q0.21875 -0.578125 0.21875 -1.390625q0 -0.875 -0.234375 -1.359375q-0.234375 -0.5 -0.609375 -0.671875q-0.25 -0.109375 -0.796875 -0.109375l-0.984375 0l0 4.375zm6.265625 0.15625q-0.28125 0.296875 -0.59375 0.453125q-0.3125 0.15625 -0.65625 0.15625q-0.53125 0 -0.84375 -0.3125q-0.3125 -0.328125 -0.3125 -0.875q0 -0.359375 0.140625 -0.625q0.15625 -0.28125 0.40625 -0.4375q0.265625 -0.15625 0.78125 -0.234375q0.703125 -0.109375 1.03125 -0.25l0 -0.171875q0 -0.421875 -0.140625 -0.59375q-0.21875 -0.25 -0.671875 -0.25q-0.390625 0 -0.59375 0.171875q-0.203125 0.15625 -0.296875 0.609375l-0.5625 -0.09375q0.125 -0.671875 0.484375 -0.96875q0.375 -0.3125 1.0625 -0.3125q0.53125 0 0.828125 0.203125q0.3125 0.203125 0.390625 0.5q0.078125 0.296875 0.078125 0.875l0 0.9375q0 0.984375 0.03125 1.234375q0.046875 0.25 0.15625 0.5l-0.59375 0q-0.09375 -0.21875 -0.125 -0.515625zm-0.046875 -1.5625q-0.3125 0.15625 -0.9375 0.265625q-0.359375 0.0625 -0.515625 0.140625q-0.140625 0.078125 -0.21875 0.234375q-0.078125 0.140625 -0.078125 0.328125q0 0.296875 0.171875 0.484375q0.1875 0.171875 0.515625 0.171875q0.3125 0 0.5625 -0.15625q0.25 -0.171875 0.375 -0.4375q0.125 -0.265625 0.125 -0.78125l0 -0.25zm2.7578125 1.453125l0.078125 0.609375q-0.234375 0.078125 -0.421875 0.078125q-0.296875 0 -0.484375 -0.125q-0.1875 -0.125 -0.265625 -0.328125q-0.0625 -0.203125 -0.0625 -0.828125l0 -2.390625l-0.421875 0l0 -0.546875l0.421875 0l0 -1.015625l0.578125 -0.421875l0 1.4375l0.578125 0l0 0.546875l-0.578125 0l0 2.4375q0 0.328125 0.046875 0.421875q0.078125 0.140625 0.28125 0.140625q0.09375 0 0.25 -0.015625zm2.7617188 0.109375q-0.28125 0.296875 -0.59375 0.453125q-0.3125 0.15625 -0.65625 0.15625q-0.53125 0 -0.84375 -0.3125q-0.3125 -0.328125 -0.3125 -0.875q0 -0.359375 0.140625 -0.625q0.15625 -0.28125 0.40625 -0.4375q0.265625 -0.15625 0.78125 -0.234375q0.703125 -0.109375 1.03125 -0.25l0 -0.171875q0 -0.421875 -0.140625 -0.59375q-0.21875 -0.25 -0.671875 -0.25q-0.390625 0 -0.59375 0.171875q-0.203125 0.15625 -0.296875 0.609375l-0.5625 -0.09375q0.125 -0.671875 0.484375 -0.96875q0.375 -0.3125 1.0625 -0.3125q0.53125 0 0.828125 0.203125q0.3125 0.203125 0.390625 0.5q0.078125 0.296875 0.078125 0.875l0 0.9375q0 0.984375 0.03125 1.234375q0.046875 0.25 0.15625 0.5l-0.59375 0q-0.09375 -0.21875 -0.125 -0.515625zm-0.046875 -1.5625q-0.3125 0.15625 -0.9375 0.265625q-0.359375 0.0625 -0.515625 0.140625q-0.140625 0.078125 -0.21875 0.234375q-0.078125 0.140625 -0.078125 0.328125q0 0.296875 0.171875 0.484375q0.1875 0.171875 0.515625 0.171875q0.3125 0 0.5625 -0.15625q0.25 -0.171875 0.375 -0.4375q0.125 -0.265625 0.125 -0.78125l0 -0.25zm1.2578125 0.84375l0.578125 -0.109375q0.046875 0.4375 0.265625 0.65625q0.234375 0.203125 0.609375 0.203125q0.375 0 0.578125 -0.1875q0.203125 -0.1875 0.203125 -0.46875q0 -0.25 -0.171875 -0.390625q-0.125 -0.09375 -0.59375 -0.234375q-0.671875 -0.203125 -0.90625 -0.34375q-0.21875 -0.140625 -0.34375 -0.375q-0.125 -0.25 -0.125 -0.5625q0 -0.53125 0.34375 -0.859375q0.34375 -0.34375 0.9375 -0.34375q0.390625 0 0.671875 0.140625q0.28125 0.140625 0.4375 0.375q0.15625 0.21875 0.21875 0.65625l-0.5625 0.09375q-0.078125 -0.6875 -0.75 -0.6875q-0.375 0 -0.5625 0.15625q-0.171875 0.15625 -0.171875 0.390625q0 0.21875 0.171875 0.359375q0.109375 0.078125 0.625 0.25q0.71875 0.234375 0.921875 0.375q0.21875 0.125 0.328125 0.359375q0.125 0.234375 0.125 0.546875q0 0.59375 -0.375 0.96875q-0.375 0.359375 -1.03125 0.359375q-1.21875 0 -1.421875 -1.328125zm5.828125 -0.109375l0.59375 0.09375q-0.140625 0.671875 -0.53125 1.015625q-0.390625 0.328125 -0.96875 0.328125q-0.71875 0 -1.171875 -0.546875q-0.4375 -0.546875 -0.4375 -1.59375q0 -1.0625 0.4375 -1.625q0.453125 -0.578125 1.15625 -0.578125q0.65625 0 1.09375 0.5625q0.4375 0.546875 0.4375 1.609375l0 0.1875l-2.53125 0q0.03125 0.6875 0.3125 1.046875q0.296875 0.359375 0.703125 0.359375q0.65625 0 0.90625 -0.859375zm-1.890625 -1.125l1.890625 0q-0.03125 -0.546875 -0.21875 -0.8125q-0.28125 -0.390625 -0.71875 -0.390625q-0.375 0 -0.65625 0.328125q-0.265625 0.328125 -0.296875 0.875zm4.4921875 1.84375l0.078125 0.609375q-0.234375 0.078125 -0.421875 0.078125q-0.296875 0 -0.484375 -0.125q-0.1875 -0.125 -0.265625 -0.328125q-0.0625 -0.203125 -0.0625 -0.828125l0 -2.390625l-0.421875 0l0 -0.546875l0.421875 0l0 -1.015625l0.578125 -0.421875l0 1.4375l0.578125 0l0 0.546875l-0.578125 0l0 2.4375q0 0.328125 0.046875 0.421875q0.078125 0.140625 0.28125 0.140625q0.09375 0 0.25 -0.015625z" fill-rule="nonzero"></path><path fill="#f4cccc" d="m104.96198 199.10054l0 0c0 -1.7102509 14.411636 -3.0966797 32.189293 -3.0966797c17.777649 0 32.189285 1.3864288 32.189285 3.0966797l0 12.3867035c0 1.7102356 -14.411636 3.0966644 -32.189285 3.0966644c-17.777657 0 -32.189293 -1.3864288 -32.189293 -3.0966644z" fill-rule="nonzero"></path><path fill="#000000" fill-opacity="0.0" d="m169.34056 199.10054l0 0c0 1.7102356 -14.411636 3.0966644 -32.189285 3.0966644c-17.777657 0 -32.189293 -1.3864288 -32.189293 -3.0966644" fill-rule="nonzero"></path><path fill="#000000" fill-opacity="0.0" d="m104.96198 199.10054l0 0c0 -1.7102509 14.411636 -3.0966797 32.189293 -3.0966797c17.777649 0 32.189285 1.3864288 32.189285 3.0966797l0 12.3867035c0 1.7102356 -14.411636 3.0966644 -32.189285 3.0966644c-17.777657 0 -32.189293 -1.3864288 -32.189293 -3.0966644z" fill-rule="nonzero"></path><path stroke="#990000" stroke-width="1.0" stroke-linejoin="round" stroke-linecap="butt" d="m169.34056 199.10054l0 0c0 1.7102356 -14.411636 3.0966644 -32.189285 3.0966644c-17.777657 0 -32.189293 -1.3864288 -32.189293 -3.0966644" fill-rule="nonzero"></path><path stroke="#990000" stroke-width="1.0" stroke-linejoin="round" stroke-linecap="butt" d="m104.96198 199.10054l0 0c0 -1.7102509 14.411636 -3.0966797 32.189293 -3.0966797c17.777649 0 32.189285 1.3864288 32.189285 3.0966797l0 12.3867035c0 1.7102356 -14.411636 3.0966644 -32.189285 3.0966644c-17.777657 0 -32.189293 -1.3864288 -32.189293 -3.0966644z" fill-rule="nonzero"></path><path fill="#000000" d="m125.52042 209.52223l0 -5.734375l1.140625 0l1.359375 4.0625q0.1875 0.5625 0.265625 0.84375q0.109375 -0.3125 0.3125 -0.921875l1.375 -3.984375l1.015625 0l0 5.734375l-0.734375 0l0 -4.796875l-1.65625 4.796875l-0.6875 0l-1.65625 -4.875l0 4.875l-0.734375 0zm9.3046875 -0.515625q-0.390625 0.328125 -0.75 0.46875q-0.359375 0.140625 -0.78125 0.140625q-0.671875 0 -1.046875 -0.328125q-0.359375 -0.34375 -0.359375 -0.859375q0 -0.3125 0.125 -0.5625q0.140625 -0.25 0.359375 -0.390625q0.234375 -0.15625 0.515625 -0.234375q0.203125 -0.0625 0.625 -0.109375q0.859375 -0.109375 1.25 -0.25q0.015625 -0.140625 0.015625 -0.171875q0 -0.4375 -0.203125 -0.609375q-0.265625 -0.234375 -0.796875 -0.234375q-0.5 0 -0.734375 0.171875q-0.234375 0.171875 -0.359375 0.609375l-0.6875 -0.09375q0.09375 -0.4375 0.3125 -0.703125q0.21875 -0.28125 0.625 -0.421875q0.40625 -0.15625 0.9375 -0.15625q0.53125 0 0.859375 0.125q0.34375 0.125 0.5 0.328125q0.15625 0.1875 0.21875 0.46875q0.03125 0.1875 0.03125 0.65625l0 0.9375q0 0.96875 0.046875 1.234375q0.046875 0.265625 0.171875 0.5l-0.734375 0q-0.109375 -0.21875 -0.140625 -0.515625zm-0.0625 -1.5625q-0.375 0.15625 -1.140625 0.265625q-0.4375 0.0625 -0.625 0.140625q-0.171875 0.078125 -0.265625 0.234375q-0.09375 0.140625 -0.09375 0.328125q0 0.28125 0.203125 0.46875q0.21875 0.1875 0.625 0.1875q0.40625 0 0.71875 -0.171875q0.328125 -0.1875 0.46875 -0.5q0.109375 -0.234375 0.109375 -0.703125l0 -0.25zm1.5273438 0.84375l0.6875 -0.109375q0.0625 0.40625 0.328125 0.640625q0.265625 0.21875 0.75 0.21875q0.484375 0 0.71875 -0.1875q0.234375 -0.203125 0.234375 -0.46875q0 -0.25 -0.203125 -0.375q-0.140625 -0.09375 -0.71875 -0.25q-0.78125 -0.1875 -1.078125 -0.328125q-0.296875 -0.140625 -0.453125 -0.390625q-0.15625 -0.265625 -0.15625 -0.5625q0 -0.28125 0.125 -0.515625q0.140625 -0.234375 0.359375 -0.390625q0.15625 -0.125 0.4375 -0.203125q0.28125 -0.09375 0.609375 -0.09375q0.484375 0 0.859375 0.140625q0.375 0.140625 0.546875 0.390625q0.171875 0.234375 0.234375 0.640625l-0.6875 0.09375q-0.046875 -0.328125 -0.265625 -0.5q-0.21875 -0.1875 -0.640625 -0.1875q-0.484375 0 -0.6875 0.171875q-0.203125 0.15625 -0.203125 0.375q0 0.125 0.078125 0.234375q0.09375 0.125 0.28125 0.1875q0.09375 0.046875 0.609375 0.1875q0.75 0.203125 1.046875 0.328125q0.296875 0.125 0.453125 0.375q0.171875 0.234375 0.171875 0.59375q0 0.34375 -0.203125 0.65625q-0.203125 0.3125 -0.59375 0.484375q-0.375 0.171875 -0.875 0.171875q-0.796875 0 -1.234375 -0.328125q-0.421875 -0.34375 -0.53125 -1.0zm5.8125 0.609375l0.109375 0.609375q-0.296875 0.078125 -0.53125 0.078125q-0.390625 0 -0.609375 -0.125q-0.203125 -0.125 -0.296875 -0.3125q-0.078125 -0.203125 -0.078125 -0.84375l0 -2.390625l-0.515625 0l0 -0.546875l0.515625 0l0 -1.015625l0.703125 -0.421875l0 1.4375l0.703125 0l0 0.546875l-0.703125 0l0 2.4375q0 0.296875 0.03125 0.390625q0.046875 0.078125 0.125 0.125q0.078125 0.046875 0.234375 0.046875q0.125 0 0.3125 -0.015625zm3.5351562 -0.71875l0.71875 0.09375q-0.171875 0.640625 -0.640625 1.0q-0.453125 0.34375 -1.1875 0.34375q-0.90625 0 -1.4375 -0.5625q-0.53125 -0.5625 -0.53125 -1.578125q0 -1.046875 0.53125 -1.625q0.546875 -0.578125 1.40625 -0.578125q0.828125 0 1.359375 0.578125q0.53125 0.5625 0.53125 1.59375q0 0.0625 -0.015625 0.1875l-3.09375 0q0.046875 0.671875 0.390625 1.046875q0.34375 0.359375 0.875 0.359375q0.375 0 0.640625 -0.203125q0.28125 -0.203125 0.453125 -0.65625zm-2.3125 -1.125l2.3125 0q-0.046875 -0.53125 -0.265625 -0.796875q-0.328125 -0.40625 -0.875 -0.40625q-0.484375 0 -0.8125 0.328125q-0.328125 0.328125 -0.359375 0.875zm3.9023438 2.46875l0 -4.15625l0.640625 0l0 0.640625q0.234375 -0.453125 0.4375 -0.59375q0.21875 -0.140625 0.453125 -0.140625q0.359375 0 0.734375 0.234375l-0.25 0.65625q-0.25 -0.15625 -0.515625 -0.15625q-0.234375 0 -0.421875 0.140625q-0.171875 0.140625 -0.25 0.375q-0.125 0.375 -0.125 0.828125l0 2.171875l-0.703125 0z" fill-rule="nonzero"></path><path fill="#000000" fill-opacity="0.0" d="m26.333332 95.54462l39.31416 0l0 123.81102l39.30002 0" fill-rule="nonzero"></path><path stroke="#000000" stroke-width="1.0" stroke-linejoin="round" stroke-linecap="butt" d="m26.333334 95.54462l39.314156 0l0 123.81102l33.30002 0" fill-rule="evenodd"></path><path fill="#000000" stroke="#000000" stroke-width="1.0" stroke-linecap="butt" d="m98.94751 221.00737l4.5380936 -1.6517334l-4.5380936 -1.6517334z" fill-rule="evenodd"></path><path fill="#fce5cd" d="m104.96326 125.5828l0 0c0 -3.4210434 2.7733002 -6.194351 6.1943436 -6.194351l51.98925 0c1.6428528 0 3.2184143 0.6526184 4.380081 1.8142853c1.1616516 1.1616669 1.81427 2.7372208 1.81427 4.380066l0 24.77665c0 3.421051 -2.7733002 6.194351 -6.194351 6.194351l-51.98925 0c-3.4210434 0 -6.1943436 -2.7733002 -6.1943436 -6.194351z" fill-rule="nonzero"></path><path stroke="#b45f06" stroke-width="1.0" stroke-linejoin="round" stroke-linecap="butt" d="m104.96326 125.5828l0 0c0 -3.4210434 2.7733002 -6.194351 6.1943436 -6.194351l51.98925 0c1.6428528 0 3.2184143 0.6526184 4.380081 1.8142853c1.1616516 1.1616669 1.81427 2.7372208 1.81427 4.380066l0 24.77665c0 3.421051 -2.7733002 6.194351 -6.194351 6.194351l-51.98925 0c-3.4210434 0 -6.1943436 -2.7733002 -6.1943436 -6.194351z" fill-rule="nonzero"></path><path fill="#000000" d="m129.24794 135.65112l0 -5.734375l1.765625 0q0.53125 0 0.84375 0.171875q0.3125 0.171875 0.515625 0.53125q0.203125 0.34375 0.203125 0.765625q0 0.390625 -0.171875 0.71875q-0.171875 0.3125 -0.484375 0.5q0.40625 0.140625 0.640625 0.5q0.234375 0.359375 0.234375 0.890625q0 0.515625 -0.21875 0.90625q-0.203125 0.390625 -0.5625 0.578125q-0.359375 0.171875 -0.96875 0.171875l-1.796875 0zm0.625 -3.328125l1.015625 0q0.390625 0 0.5625 -0.046875q0.25 -0.078125 0.375 -0.265625q0.125 -0.203125 0.125 -0.53125q0 -0.3125 -0.125 -0.515625q-0.109375 -0.203125 -0.3125 -0.28125q-0.1875 -0.078125 -0.703125 -0.078125l-0.9375 0l0 1.71875zm0 2.65625l1.171875 0q0.375 0 0.5625 -0.078125q0.265625 -0.09375 0.40625 -0.328125q0.140625 -0.234375 0.140625 -0.59375q0 -0.3125 -0.140625 -0.53125q-0.125 -0.234375 -0.359375 -0.328125q-0.21875 -0.109375 -0.703125 -0.109375l-1.078125 0l0 1.96875zm5.90625 0.15625q-0.28125 0.296875 -0.59375 0.453125q-0.3125 0.15625 -0.65625 0.15625q-0.53125 0 -0.84375 -0.3125q-0.3125 -0.328125 -0.3125 -0.875q0 -0.359375 0.140625 -0.625q0.15625 -0.28125 0.40625 -0.4375q0.265625 -0.15625 0.78125 -0.234375q0.703125 -0.109375 1.03125 -0.25l0 -0.171875q0 -0.421875 -0.140625 -0.59375q-0.21875 -0.25 -0.671875 -0.25q-0.390625 0 -0.59375 0.171875q-0.203125 0.15625 -0.296875 0.609375l-0.5625 -0.09375q0.125 -0.671875 0.484375 -0.96875q0.375 -0.3125 1.0625 -0.3125q0.53125 0 0.828125 0.203125q0.3125 0.203125 0.390625 0.5q0.078125 0.296875 0.078125 0.875l0 0.9375q0 0.984375 0.03125 1.234375q0.046875 0.25 0.15625 0.5l-0.59375 0q-0.09375 -0.21875 -0.125 -0.515625zm-0.046875 -1.5625q-0.3125 0.15625 -0.9375 0.265625q-0.359375 0.0625 -0.515625 0.140625q-0.140625 0.078125 -0.21875 0.234375q-0.078125 0.140625 -0.078125 0.328125q0 0.296875 0.171875 0.484375q0.1875 0.171875 0.515625 0.171875q0.3125 0 0.5625 -0.15625q0.25 -0.171875 0.375 -0.4375q0.125 -0.265625 0.125 -0.78125l0 -0.25zm2.7578125 1.453125l0.078125 0.609375q-0.234375 0.078125 -0.421875 0.078125q-0.296875 0 -0.484375 -0.125q-0.1875 -0.125 -0.265625 -0.328125q-0.0625 -0.203125 -0.0625 -0.828125l0 -2.390625l-0.421875 0l0 -0.546875l0.421875 0l0 -1.015625l0.578125 -0.421875l0 1.4375l0.578125 0l0 0.546875l-0.578125 0l0 2.4375q0 0.328125 0.046875 0.421875q0.078125 0.140625 0.28125 0.140625q0.09375 0 0.25 -0.015625zm2.7773438 -0.890625l0.5625 0.078125q-0.09375 0.75 -0.484375 1.140625q-0.390625 0.390625 -0.953125 0.390625q-0.65625 0 -1.09375 -0.546875q-0.4375 -0.546875 -0.4375 -1.625q0 -1.078125 0.4375 -1.625q0.4375 -0.546875 1.125 -0.546875q0.53125 0 0.890625 0.328125q0.359375 0.328125 0.453125 0.984375l-0.546875 0.109375q-0.09375 -0.421875 -0.296875 -0.625q-0.203125 -0.21875 -0.484375 -0.21875q-0.421875 0 -0.703125 0.390625q-0.28125 0.375 -0.28125 1.1875q0 0.84375 0.265625 1.234375q0.265625 0.375 0.6875 0.375q0.328125 0 0.5625 -0.25q0.234375 -0.25 0.296875 -0.78125zm1.046875 1.515625l0 -5.734375l0.578125 0l0 2.0625q0.203125 -0.28125 0.453125 -0.421875q0.265625 -0.15625 0.5625 -0.15625q0.546875 0 0.859375 0.359375q0.3125 0.34375 0.3125 1.265625l0 2.625l-0.5625 0l0 -2.625q0 -0.546875 -0.203125 -0.78125q-0.1875 -0.234375 -0.515625 -0.234375q-0.375 0 -0.640625 0.3125q-0.265625 0.296875 -0.265625 1.0625l0 2.265625l-0.578125 0z" fill-rule="nonzero"></path><path fill="#000000" d="m120.63856 145.65112l0 -4.15625l0.515625 0l0 0.59375q0.171875 -0.328125 0.4375 -0.5q0.265625 -0.1875 0.59375 -0.1875q0.359375 0 0.59375 0.1875q0.25 0.1875 0.359375 0.546875q0.203125 -0.359375 0.46875 -0.546875q0.265625 -0.1875 0.578125 -0.1875q0.5 0 0.78125 0.34375q0.28125 0.328125 0.28125 1.0625l0 2.84375l-0.578125 0l0 -2.609375q0 -0.453125 -0.0625 -0.640625q-0.0625 -0.1875 -0.21875 -0.28125q-0.140625 -0.109375 -0.3125 -0.109375q-0.375 0 -0.609375 0.296875q-0.234375 0.296875 -0.234375 0.9375l0 2.40625l-0.578125 0l0 -2.703125q0 -0.515625 -0.15625 -0.71875q-0.15625 -0.21875 -0.4375 -0.21875q-0.390625 0 -0.625 0.328125q-0.234375 0.3125 -0.234375 1.15625l0 2.15625l-0.5625 0zm7.6679764 -0.515625q-0.28125 0.296875 -0.5937576 0.453125q-0.3125 0.15625 -0.65625 0.15625q-0.53125 0 -0.84375 -0.3125q-0.3125 -0.328125 -0.3125 -0.875q0 -0.359375 0.140625 -0.625q0.15625 -0.28125 0.40625 -0.4375q0.265625 -0.15625 0.78125 -0.234375q0.703125 -0.109375 1.0312576 -0.25l0 -0.171875q0 -0.421875 -0.140625 -0.59375q-0.21875763 -0.25 -0.6718826 -0.25q-0.390625 0 -0.59375 0.171875q-0.203125 0.15625 -0.296875 0.609375l-0.5625 -0.09375q0.125 -0.671875 0.484375 -0.96875q0.375 -0.3125 1.0625 -0.3125q0.5312576 0 0.8281326 0.203125q0.3125 0.203125 0.390625 0.5q0.078125 0.296875 0.078125 0.875l0 0.9375q0 0.984375 0.03125 1.234375q0.046875 0.25 0.15625 0.5l-0.59375 0q-0.09375 -0.21875 -0.125 -0.515625zm-0.046875 -1.5625q-0.31250763 0.15625 -0.9375076 0.265625q-0.359375 0.0625 -0.515625 0.140625q-0.140625 0.078125 -0.21875 0.234375q-0.078125 0.140625 -0.078125 0.328125q0 0.296875 0.171875 0.484375q0.1875 0.171875 0.515625 0.171875q0.3125 0 0.5625 -0.15625q0.25000763 -0.171875 0.37500763 -0.4375q0.125 -0.265625 0.125 -0.78125l0 -0.25zm2.7578125 1.453125l0.078125 0.609375q-0.234375 0.078125 -0.421875 0.078125q-0.296875 0 -0.484375 -0.125q-0.1875 -0.125 -0.265625 -0.328125q-0.0625 -0.203125 -0.0625 -0.828125l0 -2.390625l-0.421875 0l0 -0.546875l0.421875 0l0 -1.015625l0.578125 -0.421875l0 1.4375l0.578125 0l0 0.546875l-0.578125 0l0 2.4375q0 0.328125 0.046875 0.421875q0.078125 0.140625 0.28125 0.140625q0.09375 0 0.25 -0.015625zm2.8710938 -0.71875l0.59375 0.09375q-0.140625 0.671875 -0.53125 1.015625q-0.390625 0.328125 -0.96875 0.328125q-0.71875 0 -1.171875 -0.546875q-0.4375 -0.546875 -0.4375 -1.59375q0 -1.0625 0.4375 -1.625q0.453125 -0.578125 1.15625 -0.578125q0.65625 0 1.09375 0.5625q0.4375 0.546875 0.4375 1.609375l0 0.1875l-2.53125 0q0.03125 0.6875 0.3125 1.046875q0.296875 0.359375 0.703125 0.359375q0.65625 0 0.90625 -0.859375zm-1.890625 -1.125l1.890625 0q-0.03125 -0.546875 -0.21875 -0.8125q-0.28125 -0.390625 -0.71875 -0.390625q-0.375 0 -0.65625 0.328125q-0.265625 0.328125 -0.296875 0.875zm3.2109375 2.46875l0 -4.15625l0.515625 0l0 0.640625q0.203125 -0.4375 0.359375 -0.578125q0.171875 -0.15625 0.390625 -0.15625q0.28125 0 0.578125 0.234375l-0.1875 0.65625q-0.21875 -0.15625 -0.421875 -0.15625q-0.1875 0 -0.34375 0.125q-0.140625 0.125 -0.203125 0.359375q-0.109375 0.40625 -0.109375 0.859375l0 2.171875l-0.578125 0zm2.1835938 -4.921875l0 -0.8125l0.578125 0l0 0.8125l-0.578125 0zm0 4.921875l0 -4.15625l0.578125 0l0 4.15625l-0.578125 0zm3.6757812 -0.515625q-0.28125 0.296875 -0.59375 0.453125q-0.3125 0.15625 -0.65625 0.15625q-0.53125 0 -0.84375 -0.3125q-0.3125 -0.328125 -0.3125 -0.875q0 -0.359375 0.140625 -0.625q0.15625 -0.28125 0.40625 -0.4375q0.265625 -0.15625 0.78125 -0.234375q0.703125 -0.109375 1.03125 -0.25l0 -0.171875q0 -0.421875 -0.140625 -0.59375q-0.21875 -0.25 -0.671875 -0.25q-0.390625 0 -0.59375 0.171875q-0.203125 0.15625 -0.296875 0.609375l-0.5625 -0.09375q0.125 -0.671875 0.484375 -0.96875q0.375 -0.3125 1.0625 -0.3125q0.53125 0 0.828125 0.203125q0.3125 0.203125 0.390625 0.5q0.078125 0.296875 0.078125 0.875l0 0.9375q0 0.984375 0.03125 1.234375q0.046875 0.25 0.15625 0.5l-0.59375 0q-0.09375 -0.21875 -0.125 -0.515625zm-0.046875 -1.5625q-0.3125 0.15625 -0.9375 0.265625q-0.359375 0.0625 -0.515625 0.140625q-0.140625 0.078125 -0.21875 0.234375q-0.078125 0.140625 -0.078125 0.328125q0 0.296875 0.171875 0.484375q0.1875 0.171875 0.515625 0.171875q0.3125 0 0.5625 -0.15625q0.25 -0.171875 0.375 -0.4375q0.125 -0.265625 0.125 -0.78125l0 -0.25zm1.4609375 2.078125l0 -5.734375l0.578125 0l0 5.734375l-0.578125 0zm1.4726562 -4.921875l0 -0.8125l0.578125 0l0 0.8125l-0.578125 0zm0 4.921875l0 -4.15625l0.578125 0l0 4.15625l-0.578125 0zm1.1601562 0l0 -0.578125l2.171875 -3.03125q-0.375 0.03125 -0.65625 0.03125l-1.375 0l0 -0.578125l2.78125 0l0 0.46875l-1.84375 2.640625l-0.359375 0.46875q0.390625 -0.03125 0.71875 -0.03125l1.578125 0l0 0.609375l-3.015625 0zm5.90625 -1.34375l0.59375 0.09375q-0.140625 0.671875 -0.53125 1.015625q-0.390625 0.328125 -0.96875 0.328125q-0.71875 0 -1.171875 -0.546875q-0.4375 -0.546875 -0.4375 -1.59375q0 -1.0625 0.4375 -1.625q0.453125 -0.578125 1.15625 -0.578125q0.65625 0 1.09375 0.5625q0.4375 0.546875 0.4375 1.609375l0 0.1875l-2.53125 0q0.03125 0.6875 0.3125 1.046875q0.296875 0.359375 0.703125 0.359375q0.65625 0 0.90625 -0.859375zm-1.890625 -1.125l1.890625 0q-0.03125 -0.546875 -0.21875 -0.8125q-0.28125 -0.390625 -0.71875 -0.390625q-0.375 0 -0.65625 0.328125q-0.265625 0.328125 -0.296875 0.875zm3.2109375 2.46875l0 -4.15625l0.515625 0l0 0.640625q0.203125 -0.4375 0.359375 -0.578125q0.171875 -0.15625 0.390625 -0.15625q0.28125 0 0.578125 0.234375l-0.1875 0.65625q-0.21875 -0.15625 -0.421875 -0.15625q-0.1875 0 -0.34375 0.125q-0.140625 0.125 -0.203125 0.359375q-0.109375 0.40625 -0.109375 0.859375l0 2.171875l-0.578125 0z" fill-rule="nonzero"></path><path fill="#000000" fill-opacity="0.0" d="m137.15128 196.00386l0 -19.725174l0.06298828 0l0 -19.739395" fill-rule="nonzero"></path><path stroke="#000000" stroke-width="1.0" stroke-linejoin="round" stroke-linecap="butt" d="m137.15128 196.00386l0 -19.725174l0.06298828 0l0 -13.739395" fill-rule="evenodd"></path><path fill="#000000" stroke="#000000" stroke-width="1.0" stroke-linecap="butt" d="m138.866 162.53929l-1.6517334 -4.538086l-1.6517334 4.538086z" fill-rule="evenodd"></path><path fill="#000000" fill-opacity="0.0" d="m169.3412 137.97113l20.813492 0l0 0.06298828l20.82431 0" fill-rule="nonzero"></path><path stroke="#000000" stroke-width="1.0" stroke-linejoin="round" stroke-linecap="butt" d="m169.3412 137.97113l20.813492 0l0 0.06298828l14.82431 0" fill-rule="evenodd"></path><path fill="#000000" stroke="#000000" stroke-width="1.0" stroke-linecap="butt" d="m204.979 139.68585l4.538101 -1.6517334l-4.538101 -1.6517334z" fill-rule="evenodd"></path><path fill="#000000" fill-opacity="0.0" d="m21.299213 85.88189l58.07874 0l0 11.212601l-58.07874 0z" fill-rule="nonzero"></path><path fill="#000000" d="m30.830463 94.16819l0 -4.15625l0.625 0l0 0.59375q0.46875 -0.6875 1.328125 -0.6875q0.375 0 0.6875 0.140625q0.3125 0.140625 0.46875 0.359375q0.15625 0.21875 0.21875 0.515625q0.046875 0.1875 0.046875 0.6875l0 2.546875l-0.703125 0l0 -2.53125q0 -0.421875 -0.09375 -0.625q-0.078125 -0.21875 -0.296875 -0.34375q-0.203125 -0.140625 -0.484375 -0.140625q-0.4375 0 -0.765625 0.296875q-0.328125 0.28125 -0.328125 1.078125l0 2.265625l-0.703125 0zm7.2929688 -1.34375l0.71875 0.09375q-0.171875 0.640625 -0.640625 1.0q-0.453125 0.34375 -1.1875 0.34375q-0.90625 0 -1.4375 -0.5625q-0.53125 -0.5625 -0.53125 -1.578125q0 -1.046875 0.53125 -1.625q0.546875 -0.578125 1.40625 -0.578125q0.828125 0 1.359375 0.578125q0.53125 0.5625 0.53125 1.59375q0 0.0625 -0.015625 0.1875l-3.09375 0q0.046875 0.671875 0.390625 1.046875q0.34375 0.359375 0.875 0.359375q0.375 0 0.640625 -0.203125q0.28125 -0.203125 0.453125 -0.65625zm-2.3125 -1.125l2.3125 0q-0.046875 -0.53125 -0.265625 -0.796875q-0.328125 -0.40625 -0.875 -0.40625q-0.484375 0 -0.8125 0.328125q-0.328125 0.328125 -0.359375 0.875zm4.6835938 2.46875l-1.265625 -4.15625l0.71875 0l0.65625 2.40625l0.25 0.890625q0.015625 -0.078125 0.21875 -0.859375l0.65625 -2.4375l0.71875 0l0.625 2.40625l0.203125 0.796875l0.25 -0.796875l0.703125 -2.40625l0.6875 0l-1.296875 4.15625l-0.734375 0l-0.65625 -2.484375l-0.15625 -0.703125l-0.84375 3.1875l-0.734375 0zm7.6992188 0l0 -0.53125q-0.390625 0.625 -1.15625 0.625q-0.5 0 -0.921875 -0.265625q-0.40625 -0.28125 -0.640625 -0.765625q-0.21875 -0.5 -0.21875 -1.140625q0 -0.609375 0.203125 -1.109375q0.203125 -0.515625 0.609375 -0.78125q0.421875 -0.28125 0.9375 -0.28125q0.375 0 0.65625 0.171875q0.296875 0.15625 0.484375 0.40625l0 -2.0625l0.703125 0l0 5.734375l-0.65625 0zm-2.21875 -2.078125q0 0.796875 0.328125 1.203125q0.34375 0.390625 0.796875 0.390625q0.46875 0 0.78125 -0.375q0.328125 -0.375 0.328125 -1.15625q0 -0.84375 -0.328125 -1.234375q-0.328125 -0.40625 -0.8125 -0.40625q-0.46875 0 -0.78125 0.390625q-0.3125 0.375 -0.3125 1.1875zm6.6835938 1.5625q-0.390625 0.328125 -0.75 0.46875q-0.359375 0.140625 -0.78125 0.140625q-0.671875 0 -1.046875 -0.328125q-0.359375 -0.34375 -0.359375 -0.859375q0 -0.3125 0.125 -0.5625q0.140625 -0.25 0.359375 -0.390625q0.234375 -0.15625 0.515625 -0.234375q0.203125 -0.0625 0.625 -0.109375q0.859375 -0.109375 1.25 -0.25q0.015625 -0.140625 0.015625 -0.171875q0 -0.4375 -0.203125 -0.609375q-0.265625 -0.234375 -0.796875 -0.234375q-0.5 0 -0.734375 0.171875q-0.234375 0.171875 -0.359375 0.609375l-0.6875 -0.09375q0.09375 -0.4375 0.3125 -0.703125q0.21875 -0.28125 0.625 -0.421875q0.40625 -0.15625 0.9375 -0.15625q0.53125 0 0.859375 0.125q0.34375 0.125 0.5 0.328125q0.15625 0.1875 0.21875 0.46875q0.03125 0.1875 0.03125 0.65625l0 0.9375q0 0.96875 0.046875 1.234375q0.046875 0.265625 0.171875 0.5l-0.734375 0q-0.109375 -0.21875 -0.140625 -0.515625zm-0.0625 -1.5625q-0.375 0.15625 -1.140625 0.265625q-0.4375 0.0625 -0.625 0.140625q-0.171875 0.078125 -0.265625 0.234375q-0.09375 0.140625 -0.09375 0.328125q0 0.28125 0.203125 0.46875q0.21875 0.1875 0.625 0.1875q0.40625 0 0.71875 -0.171875q0.328125 -0.1875 0.46875 -0.5q0.109375 -0.234375 0.109375 -0.703125l0 -0.25zm3.3398438 1.453125l0.109375 0.609375q-0.296875 0.078125 -0.53125 0.078125q-0.390625 0 -0.609375 -0.125q-0.203125 -0.125 -0.296875 -0.3125q-0.078125 -0.203125 -0.078125 -0.84375l0 -2.390625l-0.515625 0l0 -0.546875l0.515625 0l0 -1.015625l0.703125 -0.421875l0 1.4375l0.703125 0l0 0.546875l-0.703125 0l0 2.4375q0 0.296875 0.03125 0.390625q0.046875 0.078125 0.125 0.125q0.078125 0.046875 0.234375 0.046875q0.125 0 0.3125 -0.015625zm3.3945312 0.109375q-0.390625 0.328125 -0.75 0.46875q-0.359375 0.140625 -0.78125 0.140625q-0.671875 0 -1.046875 -0.328125q-0.359375 -0.34375 -0.359375 -0.859375q0 -0.3125 0.125 -0.5625q0.140625 -0.25 0.359375 -0.390625q0.234375 -0.15625 0.515625 -0.234375q0.203125 -0.0625 0.625 -0.109375q0.859375 -0.109375 1.25 -0.25q0.015625 -0.140625 0.015625 -0.171875q0 -0.4375 -0.203125 -0.609375q-0.265625 -0.234375 -0.796875 -0.234375q-0.5 0 -0.734375 0.171875q-0.234375 0.171875 -0.359375 0.609375l-0.6875 -0.09375q0.09375 -0.4375 0.3125 -0.703125q0.21875 -0.28125 0.625 -0.421875q0.40625 -0.15625 0.9375 -0.15625q0.53125 0 0.859375 0.125q0.34375 0.125 0.5 0.328125q0.15625 0.1875 0.21875 0.46875q0.03125 0.1875 0.03125 0.65625l0 0.9375q0 0.96875 0.046875 1.234375q0.046875 0.265625 0.171875 0.5l-0.734375 0q-0.109375 -0.21875 -0.140625 -0.515625zm-0.0625 -1.5625q-0.375 0.15625 -1.140625 0.265625q-0.4375 0.0625 -0.625 0.140625q-0.171875 0.078125 -0.265625 0.234375q-0.09375 0.140625 -0.09375 0.328125q0 0.28125 0.203125 0.46875q0.21875 0.1875 0.625 0.1875q0.40625 0 0.71875 -0.171875q0.328125 -0.1875 0.46875 -0.5q0.109375 -0.234375 0.109375 -0.703125l0 -0.25z" fill-rule="nonzero"></path></g></svg>

